<svg version="1.1" xmlns="http://www.w3.org/2000/svg" xmlns:xlink="http://www.w3.org/1999/xlink" x="0px" y="0px" width="120px" height="1944px" viewBox="0 0 120 1944">
<g fill="#333333"><g id="icons">
<path transform="translate(2,26)" id="down" d="M10,14.5c-0.3,0-0.5-0.1-0.7-0.3l-7-7c-0.4-0.4-0.4-1,0-1.4c0.4-0.4,1-0.4,1.4,0l6.3,6.3l6.3-6.3c0.4-0.4,1-0.4,1.4,0c0.4,0.4,0.4,1,0,1.4l-7,7C10.5,14.4,10.2,14.5,10,14.5z"/>
<g transform="rotate(180) translate(-24,-47)"><use id="up" xlink:href="#down"/></g>
<g transform="rotate(90) translate(48,-47)"><use id="prev" xlink:href="#down"/></g>
<g transform="rotate(270) translate(-96,-24)"><use id="next" xlink:href="#down"/></g>
<g id="burger" transform="translate(0,96)"><rect x="3" y="5.25" width="18" height="3" rx="0.75" ry="0.75"/><rect x="3" y="10.5" width="18" height="3" rx="0.75" ry="0.75"/><rect x="3" y="15.75" width="18" height="3" rx="0.75" ry="0.75"/></g>
<path id="home" transform="translate(2,122)" d="M15.8,1.4h-0.3h-0.6h-0.3c-0.2,0-0.3,0.3-0.3,0.4V2c0,0,0,0,0,0.1v1.5l1.8,1.8V2.7V2.1V1.8C16.1,1.7,16,1.4,15.8,1.4zM16,12.2c-0.1-0.2-0.3-0.4-0.3-0.4l-5.5-5.8c-0.2-0.2-0.4-0.2-0.6,0l-5.4,5.7c0,0-0.2,0.3-0.3,0.4c-0.1,0.3-0.1,0.7-0.1,0.7v3.9l0,0v1.3c0,0.4,0.3,0.5,0.6,0.5h1.2h0.1h2.4v-4.8c0,0,0-0.8,0.9-0.8H10l0,0h1c0.9,0,0.9,0.8,0.9,0.8v4.8h2.4h0.1h1.2c0.4,0,0.6-0.2,0.6-0.4v-1.3V13C16.1,12.9,16.1,12.5,16,12.2zM18.9,10.2l-7.8-7.8l-0.9-0.9c-0.1-0.1-0.3-0.1-0.4,0L8.8,2.4L1,10.2c-0.1,0.1-0.1,0.3,0,0.4l0.9,0.9c0.1,0.1,0.3,0.1,0.4,0L10,3.9l7.6,7.6c0.1,0.1,0.3,0.1,0.4,0l0.9-0.9C19,10.4,19,10.3,18.9,10.2z"/>
<path id="close" transform="translate(2,146)" d="M11.4,10l5.3-5.3c0.4-0.4,0.4-1,0-1.4c-0.4-0.4-1-0.4-1.4,0L10,8.6L4.7,3.3c-0.4-0.4-1-0.4-1.4,0s-0.4,1,0,1.4L8.6,10l-5.3,5.3c-0.4,0.4-0.4,1,0,1.4C3.5,16.9,3.7,17,4,17c0.3,0,0.5-0.1,0.7-0.3l5.3-5.3l5.3,5.3c0.2,0.2,0.5,0.3,0.7,0.3c0.3,0,0.5-0.1,0.7-0.3c0.4-0.4,0.4-1,0-1.4L11.4,10z"/>
<path id="logout" transform="translate(0,168)" d="M14.44,4.93V7.61a6.83,6.83,0,0,1,1.83,1.22,5.91,5.91,0,0,1,1.83,4.27,5.72,5.72,0,0,1-1.83,4.27,6.59,6.59,0,0,1-4.27,2,5.72,5.72,0,0,1-4.27-1.83,6.45,6.45,0,0,1-1.83-4.27A5.72,5.72,0,0,1,7.73,9,6,6,0,0,1,9.56,7.73V4.93a8.67,8.67,0,0,0-6.09,8.29,8.53,8.53,0,0,0,17.06,0A8.67,8.67,0,0,0,14.44,4.93ZM12,10.78a1.15,1.15,0,0,0,1.22-1.22h0V3.47A1.15,1.15,0,0,0,12,2.25a1.15,1.15,0,0,0-1.22,1.22V9.56h0A1.22,1.22,0,0,0,12,10.78Z"/>
<path id="search" transform="translate(0,192)" d="M21.26,19.31l-4-4a7.76,7.76,0,0,0,1.46-4.63,9.15,9.15,0,0,0-.61-3.17,9.07,9.07,0,0,0-1.71-2.68A7.75,7.75,0,0,0,13.71,3.1a7.63,7.63,0,0,0-3.29-.73,7.51,7.51,0,0,0-3.17.73A7.26,7.26,0,0,0,4.69,4.81,9.76,9.76,0,0,0,2.86,7.37a7.54,7.54,0,0,0-.61,3.29,9.15,9.15,0,0,0,.61,3.17,9.07,9.07,0,0,0,1.71,2.68,6.76,6.76,0,0,0,2.68,1.71,9.73,9.73,0,0,0,3.17.61A7.76,7.76,0,0,0,15,17.36l4,3.9a1.32,1.32,0,0,0,1.1.49,1.49,1.49,0,0,0,1.1-.49,1.32,1.32,0,0,0,.49-1.1A1.06,1.06,0,0,0,21.26,19.31Zm-7.07-5a5.07,5.07,0,0,1-3.66,1.58,4.63,4.63,0,0,1-3.66-1.58A4.63,4.63,0,0,1,5.3,10.66,4.63,4.63,0,0,1,6.88,7a5.28,5.28,0,0,1,3.66-1.58A4.63,4.63,0,0,1,14.19,7a5.28,5.28,0,0,1,1.58,3.66A4.63,4.63,0,0,1,14.19,14.32Z"/>
<path id="person" transform="translate(2,218)" d="M10,3C6.8,3,7,5.3,7.3,7.3c0.4,2.5,1.4,2.9,1.4,2.9s1.2,1,2.5,0c0,0,1-0.4,1.4-2.9C13,5.3,13,3,10,3z M16.1,14.3c-0.7-2.6-2-3-3.3-3c-0.2,0-0.3-0.1-0.4-0.1c-2.7,2.7-4.8,0-4.8,0s-0.1,0.1-0.4,0.1c-1.5,0-2.6,0.4-3.3,2.8c0,0.3-0.2,3.8-0.2,3.8h12.5C16.3,18,16.1,14.5,16.1,14.3z"/>
<g id="basket" transform="translate(1,242)"><path d="M8.6,12.4h4.7c1,0,2-0.6,2.4-1.5l2.7-4.5C18.7,5.8,18.2,5,17.5,5H5.4L4.3,3C4.2,2.8,3.9,2.7,3.7,2.7l0,0h-2C1.5,2.7,1.4,2.8,1.4,3v1.1c0,0.2,0.1,0.3,0.3,0.3h1.5l3.6,6.5l-1.9,3.4c-0.1,0.1-0.1,0.2-0.1,0.3c0,0,0,0,0,0.1v1c0,0.2,0.1,0.3,0.3,0.3h11.6c0.2,0,0.3-0.1,0.3-0.3v-1.1c0-0.2-0.1-0.3-0.3-0.3H7l1.1-1.9C8.3,12.4,8.5,12.4,8.6,12.4z"/><ellipse cx="7" cy="16.5" rx="1.1" ry="1.1"/><ellipse cx="14.5" cy="16.5" rx="1.1" ry="1.1"/></g>
<path id="eye" transform="translate(1,266)" d="M19.728,8.912c-0.126-0.236-3.161-5.773-9.773-5.773c-6.693,0-9.587,5.583-9.707,5.821c-0.33,0.654-0.33,1.425,0,2.079c0.12,0.238,3.014,5.822,9.707,5.822c6.612,0,9.647-5.538,9.773-5.773C20.091,10.408,20.091,9.592,19.728,8.912z M10,14c-2.209,0-4-1.791-4-4c0-2.209,1.791-4,4-4c2.209,0,4,1.791,4,4C14,12.209,12.209,14,10,14z"/>
<path id="hotline" transform="translate(1,290)" d="M10,0A10,10,0,1,0,20,10,10,10,0,0,0,10,0Zm4.881,14.169-.46.446a3.139,3.139,0,0,1-.662.36,2.674,2.674,0,0,1-.665.166c-.016,0-.081.008-.192.008-.638,0-2.764-.213-5.295-2.762C5.461,10.223,4.676,8.628,4.9,6.884a2.711,2.711,0,0,1,.17-.662,2.618,2.618,0,0,1,.375-.653l.44-.463a.865.865,0,0,1,.609-.254.787.787,0,0,1,.563.231L8.639,6.677a.831.831,0,0,1-.03,1.172l-.268.266L7.8,8.652c.027.05.055.1.085.154a7.944,7.944,0,0,0,1.385,1.936,7.931,7.931,0,0,0,1.922,1.4l.157.088.809-.8a.864.864,0,0,1,.608-.253.792.792,0,0,1,.564.231L14.91,13A.833.833,0,0,1,14.881,14.169Z"/>
<path id="lock" transform="translate(0,312)" d="M17.89,9.25h-0.08V7.93c0-3.27-2.66-5.93-5.93-5.93C8.61,2,5.95,4.66,5.95,7.93v1.33c-0.71,0.08-1.27,0.68-1.27,1.41v0.36v9.19v0.36c0,0.78,0.64,1.42,1.42,1.42h11.78c0.78,0,1.42-0.64,1.42-1.42v-0.36v-9.19v-0.36C19.32,9.89,18.67,9.25,17.89,9.25zM13.07,14.83v2.87c0,0.59-0.48,1.07-1.07,1.07s-1.07-0.48-1.07-1.07v-2.87c-0.39-0.31-0.64-0.79-0.64-1.32c0-0.94,0.76-1.71,1.71-1.71c0.94,0,1.71,0.76,1.71,1.71C13.71,14.05,13.45,14.52,13.07,14.83z M15.95,9.25H7.81V7.93c0-2.25,1.83-4.07,4.07-4.07c2.25,0,4.07,1.83,4.07,4.07V9.25z"/>
<path id="edit" transform="translate(0,338)" d="M21.749,6.319,17.673,2.242a.824.824,0,0,0-1.165,0L4.28,14.476a.835.835,0,0,0-.2.322L2.042,20.915a.823.823,0,0,0,1.042,1.041L9.2,19.918a.836.836,0,0,0,.323-.2L21.749,7.486A.828.828,0,0,0,21.749,6.319ZM16.336,4.284l3.371,3.372L18.47,8.894,15.1,5.521Z"/>
<path id="delete" transform="translate(0,362)" d="M20,5a1,1,0,0,0-1-1H14V3.5A1.5,1.5,0,0,0,12.5,2h-1A1.5,1.5,0,0,0,10,3.5V4H5A1,1,0,0,0,4,5V7H5.57L6.73,19.66C6.73,21,7.19,22,8.49,22h7c1.3,0,1.76-1,1.76-2.34L18.43,7H20Zm-4.56,9.7a.73.73,0,0,1,0,1l-.58.58a.72.72,0,0,1-1,0L12,14.49l-1.82,1.82a.72.72,0,0,1-1,0l-.59-.58a.74.74,0,0,1,0-1l1.83-1.83L8.56,11.05a.74.74,0,0,1,0-1l.59-.59a.74.74,0,0,1,1,0L12,11.26l1.83-1.83a.74.74,0,0,1,1,0l.58.59a.72.72,0,0,1,0,1l-1.82,1.82Z"/>
</g></g><g fill="#FFFFFF" transform="translate(24,0)"><use xlink:href="#icons"/><use xlink:href="#success"/><use xlink:href="#info"/><use fill="#525252" xlink:href="#warning"/><use xlink:href="#error"/></g>
<g fill="#707070" transform="translate(48,0)"><use xlink:href="#icons"/></g>
<g fill="#1C449B" transform="translate(72,0)"><use xlink:href="#icons"/></g>
<g style="fill:#D6DDED" transform="translate(96,0)"><use xlink:href="#icons"/></g>
<circle cx="12" cy="444" r="10" fill="#FFFFFF"/><g fill="#5CB82A"><path id="success" transform="translate(2,434)" d="M10,0A10,10,0,1,0,20,10,10,10,0,0,0,10,0Zm6.186,7.083L9.648,13.622h0L8.587,14.683h0a0.5,0.5,0,0,1-.707,0L6.817,13.624l-0.005-.008-3-3a0.5,0.5,0,0,1,0-.707L4.874,8.85a0.5,0.5,0,0,1,.707,0L8.233,11.5l6.186-6.186a0.5,0.5,0,0,1,.707,0l1.061,1.061A0.5,0.5,0,0,1,16.186,7.083Z"/></g>
<rect x="10" y="462" width="8" height="12" fill="#FFFFFF"/><g fill="#1C8AD9"><path id="info" transform="translate(2,458)" d="M17.5,1H2.5A1.5,1.5,0,0,0,1,2.5v15A1.5,1.5,0,0,0,2.5,19h15A1.5,1.5,0,0,0,19,17.5V2.5A1.5,1.5,0,0,0,17.5,1ZM11.25,16a0.5,0.5,0,0,1-.5.5H9.25a0.5,0.5,0,0,1-.5-0.5V8.5A0.5,0.5,0,0,1,9.25,8h1.5a0.5,0.5,0,0,1,.5.5V16ZM10,6.5A1.5,1.5,0,1,1,11.5,5,1.5,1.5,0,0,1,10,6.5Z"/></g>
<rect x="10" y="486" width="8" height="12" fill="#FFFFFF"/><g fill="#F0BC00"><path id="warning" transform="translate(2,482)" d="M19.6,9.036L10.964,0.4A1.367,1.367,0,0,0,9.036.4L0.4,9.036a1.367,1.367,0,0,0,0,1.928L9.036,19.6a1.367,1.367,0,0,0,1.928,0L19.6,10.964A1.367,1.367,0,0,0,19.6,9.036ZM9.319,4.545h1.363a0.455,0.455,0,0,1,.454.468l-0.2,6.818a0.455,0.455,0,0,1-.454.441H9.522a0.454,0.454,0,0,1-.454-0.441l-0.2-6.818A0.455,0.455,0,0,1,9.319,4.545ZM10,15.909a1.136,1.136,0,1,1,1.136-1.136A1.136,1.136,0,0,1,10,15.909Z"/></g>
<rect x="10" y="510" width="5" height="12" fill="#FFFFFF"/><g fill="#D40000"><path id="error" transform="translate(2,506)" d="M19.816,16.957L11.181,1.974a1.363,1.363,0,0,0-2.361,0L0.184,16.957A1.363,1.363,0,0,0,1.365,19H18.635A1.363,1.363,0,0,0,19.816,16.957ZM9.319,5.818h1.363a0.455,0.455,0,0,1,.454.468l-0.2,6.818a0.454,0.454,0,0,1-.454.441H9.522A0.454,0.454,0,0,1,9.067,13.1l-0.2-6.818A0.455,0.455,0,0,1,9.319,5.818ZM10,17.182a1.136,1.136,0,1,1,1.136-1.136A1.136,1.136,0,0,1,10,17.182Z"/></g>
</svg>
