<svg version="1.1" xmlns="http://www.w3.org/2000/svg" xmlns:xlink="http://www.w3.org/1999/xlink" x="0px" y="0px" width="120px" height="1944px" viewBox="0 0 120 1944">
<g fill="#333333"><g id="icons">
<path id="email" transform="translate(2,626)" d="M9.2,10.7c0,0,0.9,0.5,1.4,0l8.1-7.1c0,0,1.4-0.9-0.1-0.9c0,0-16.9,0-17.5,0S0.4,3,0.9,3.6L9.2,10.7zM13.4,10.2c0,0-0.5-0.4-1.4,0.7l-1,1.1c0,0-1.1,0.9-2.1-0.1L8,11.1c0,0-1-1.2-1.4-0.9l-5.4,6.1c0,0-0.6,1,0.5,1h16.7c0,0,1-0.1,0.4-0.9L13.4,10.2zM20,5c0,0,0.2-1.2-1,0.1l-4.4,3.7c0,0-0.5,0.4-0.1,0.7c0,0,2.9,3.2,3.9,4.6c1,1.2,1.6,2,1.6,0.9V5z M5.5,9.9C6,9.4,5.4,9.1,5.4,9.1L1,5.1c-1.1-1.4-1,0-1,0v10c0,1.1,0.5,0.4,1.6-0.9C2.6,13,5.5,9.9,5.5,9.9z"/>
<path id="calendar" transform="translate(2,650)" d="M14.6,10.6c0-1.4-1.1-2.3-2.5-2.3c-1.8,0-2.6,1.3-2.6,2.9h1.4c0-0.8,0.3-1.6,1.1-1.6c0.6,0,1.1,0.4,1.1,1.1c0,0.9-0.9,1.3-1.5,1.8c-1.3,0.9-2.3,1.5-2.3,3.2h5.3v-1.3h-3.4C12.3,13,14.6,12.8,14.6,10.6z M4.9,10v1.1h2v4.8h1.4V8.5h-1C7,9.6,5.9,10,4.9,10z M16.8,0H3.3c0,0-2.1,0.1-2.1,2.1v3l0.1,0.1v12.6C1.3,20,3.4,20,3.4,20h13.4c0,0,1.9,0,1.9-2V5.3l0.1-0.1v-3C18.9,0,16.8,0,16.8,0zM13.8,2.1c0-0.3,0.5-0.5,1-0.5c0.5,0,1,0.3,1,0.5v1c0,0.2-0.5,0.5-1,0.5c-0.6,0.1-1-0.1-1-0.5V2.1z M4.4,2.1c0-0.3,0.5-0.5,1-0.5s1,0.3,1,0.5v1c0,0.4-0.5,0.6-1,0.6s-1-0.2-1-0.6V2.1z M2.4,18.9V5.3h15.4v13.6C17.8,18.9,2.4,18.9,2.4,18.9z"/>
<path id="abook" transform="translate(2,674)" d="M17,20h0.4c1.4,0,1.4-1.4,1.4-1.4v-2.9H17V20z M3.6,0C3.4,0,3.2,0,3.2,0c-2,0-2,2-2,2v16c0,0,0.5,1.9,2.1,1.9h0.8H3.6V0zM18.7,10.4H17v4.3h1.1c0.8,0,0.6-0.8,0.6-0.8V10.4z M16.7,0C15.2,0,7.2,0,4.2,0l0,0v20h11.6V5.1c0,0,0.1-0.9,0.8-0.9c0.5,0,2,0,2,0V2.1C18.7,2.1,18.6,0,16.7,0z M9.9,5.5c1.5,0,1.5,1.1,1.4,2.1C11,8.9,10.6,9,10.5,9C9.9,9.5,9.2,9,9.2,9S8.7,8.9,8.6,7.6C8.4,6.6,8.2,5.5,9.9,5.5z M5.9,14.6c0,0,0.1-2.3,0.1-2.4c0.5-1.5,1.3-1.7,2.1-1.7c0.1,0,0.3,0,0.3,0s1.4,1.7,3.1,0c0,0,0.1,0,0.2,0c0.8,0,1.6,0.2,2.1,1.9c0,0.1,0.1,2.4,0.1,2.4L5.9,14.6L5.9,14.6z M18.7,5.8V5.1H17v0.6v3.6h1.1c0.8,0.1,0.6-0.6,0.6-0.6V5.8z"/>
<path id="hint" transform="translate(2,698)" d="M10,20c0.6,0,1.3-0.4,1.6-0.8H8.4C8.8,19.6,9.4,20,10,20z M12.5,16.6c0-0.3-0.3-0.5-0.5-0.5H8c-0.3,0-0.5,0.1-0.5,0.5c0,0.3,0.2,0.5,0.5,0.5c-0.3-0.1-0.5,0.1-0.5,0.4S7.7,18,8,18c-0.3,0-0.5,0.3-0.5,0.5C7.5,18.7,7.7,19,8,19h4c0.3,0,0.5-0.3,0.5-0.5c0-0.3-0.3-0.5-0.5-0.5c0.3,0,0.5-0.3,0.5-0.5c0-0.3-0.3-0.5-0.5-0.5C12.3,17,12.5,16.9,12.5,16.6zM10.8,18.4H8.5c-0.1,0-0.3-0.1-0.3-0.3s0.1-0.3,0.3-0.3h2.3c0.1,0,0.3,0.1,0.3,0.3S10.9,18.4,10.8,18.4zM11.5,17.3h-3c-0.1,0-0.3-0.1-0.3-0.3s0.1-0.3,0.3-0.3h3c0.1,0,0.3,0.1,0.3,0.3C11.7,17.1,11.6,17.3,11.5,17.3z M8.4,7C8.2,7,8.1,7.1,8,7.4c0,0.1,0,0.3,0,0.4c0,0.5,0.2,1.1,1,1.6l0.1,0.1c0.3,0.1,0.4,0.3,0.5,0.3C9.5,9.1,9.4,8.5,9.2,8.1C8.9,7.3,8.5,6.9,8.4,7zM12.3,6.5c-0.1-0.1-0.3-0.1-0.5,0c-0.4,0.2-0.9,0.9-1.4,3c0.1-0.1,0.3-0.1,0.4-0.2C11.1,9,12.4,7.6,12.4,7l0,0C12.4,6.8,12.4,6.6,12.3,6.5z M14.1,1.6c-0.6-0.6-1.5-1.1-2.5-1.4C11.1,0.1,10.5,0,10,0C8.5,0,7,0.6,5.9,1.6c-1.1,1.1-1.8,2.5-1.8,4v0.5c0.1,0.8,0.3,1.5,0.8,2.3V8.3L5,8.5c1.3,2.4,2,4.5,2,5.8L7.1,15c0.3,0.8,0.8,0.9,1,0.9h4c0.2,0,0.8-0.1,1-0.9l0.1-0.8c0-2.3,2-5.9,2-5.9c0.4-0.8,0.6-1.5,0.6-2.3V5.6C15.8,4.1,15.1,2.7,14.1,1.6z M11,9.6c-0.3,0.3-0.5,0.5-0.8,0.5v0.1v0.1c0.1,1.1,0.1,2.3,0.1,3.3v1.1H9.8v-1.1c0-1,0-2.3-0.1-3.5c-0.3,0.1-0.5,0-0.9-0.2L8.6,9.8C7.7,9.3,7.4,8.4,7.4,7.6c0-0.1,0-0.4,0.1-0.5C7.6,6.6,8,6.4,8.4,6.4c0.4,0,1,0.2,1.5,1.5c0,0.3,0,0.6,0.1,1c0.4-1.2,0.8-2.5,1.5-2.7c0.2-0.1,0.6-0.1,1,0C12.9,6.3,13,6.5,13,6.9c0,0,0,0,0,0.1C13,8,11.4,9.4,11,9.6z"/>
<path id="mailcheck" transform="translate(2,722)" d="M17,10.2c-0.3-2.7-0.3-4.3-0.4-5.4s-0.8-1.9-1.3-2.4l0.3-0.9c0.1-0.7-0.3-1.2-0.9-1.3c-0.8-0.1-1.3,0.1-1.5,0.8l-0.3,0.8c-0.9,0-2,0.3-2.8,1.3C9.3,3.9,8.6,5.3,6.9,7.5C4.6,10.6,2,11.8,1.2,13c-0.5,0.9,0,1.3,0,1.3c0.9,0.9,1.6,1.5,3.1,2.3l-0.1,0.3c-0.4,0.7-0.1,1.3,0.5,1.8c0.7,0.4,1.3,0.3,1.8-0.4l0.3-0.5c3.6,1.5,8,2.7,10.9,2.2c1.5-0.3,1.5-1.2,1.2-2.6C18.5,16,17.4,13.9,17,10.2z M8.6,17.6c-0.4-0.1-0.9-0.4-1.3-0.7l0.4-0.7c0.4-0.7,0.1-1.3-0.5-1.8c-0.7-0.4-1.5-0.3-1.9,0.4L4.6,16c-1.2-0.7-2.4-1.3-2.6-1.9C3,13.5,6.5,13.9,9.7,15s6.9,2,7.6,4C14.9,19.7,11.7,18.7,8.6,17.6z"/>
<path id="apps" transform="translate(2,746)" d="M14.4,0H5.6c-1,0-1.9,0.9-1.9,1.9v16.3c0,1,0.9,1.9,1.9,1.9h8.8c1,0,1.9-0.9,1.9-1.9V1.9C16.3,0.9,15.4,0,14.4,0zM7.5,0.9h5v0.6h-5V0.9zM10,18.8c-0.8,0-1.3-0.5-1.3-1.3s0.5-1.3,1.3-1.3s1.3,0.5,1.3,1.3S10.8,18.8,10,18.8z M15,15H5V2.5h10V15z"/>
<path id="security" transform="translate(2,770)" d="M9.9,0C6,1.6,1,2.6,1,2.6C0.6,11.7,5.1,20.1,10,20c3.1,0,8.7-5,8.9-17.4C19,2.6,13.8,1.5,9.9,0z M9.5,13.9L5.8,11c0,0-1-1.5,1-1.7l2.5,1.9l3.9-4.7c0,0,1.2-0.2,1.5,1.1L9.5,13.9z"/>
<path id="emig" transform="translate(2,794)" d="M7.4,9.6v1.8H6.6v2.4H1.9v1.3c0,0.8,0.6,1.4,1.4,1.4h0.2l6.8-4.9L7.4,9.6z M1.9,5.7v0.3h0.3L1.9,5.7z M11.5,11.4l6.8,4.9h0.4c0.8,0,1.4-0.6,1.4-1.4V5.7L11.5,11.4z M4.6,16.3h12.5L11,11.8L4.6,16.3z M18.6,3.2H3.3c-0.8,0-1.4,0.6-1.4,1.4v0.4l1.3,1h5.3v2.8H7.8l3.1,2.1l9.1-6V4.6C20,3.8,19.4,3.2,18.6,3.2zM7.4,6.8H0v1.4h7.4V6.8z M6.6,9.1H0v1.4h6.6V9.1z M5.9,11.2H0v1.5h5.9V11.2z"/>
<path id="pgp" transform="translate(2,818)" d="M15.6,7.6c0-0.9,0-2.2,0-2.2c0-3-2.5-5.3-5.5-5.3S4.8,2.4,4.8,5.4c0,0,0,1.6,0,2.5C3.7,9.1,3,10.9,3,12.7
    c0,4,3.2,7.3,7.3,7.3s7.3-3.2,7.3-7.3C17.6,10.7,16.9,8.9,15.6,7.6zM11.3,13c0,0.7,0,2.5,0,2.5c0,0.5-0.5,0.9-1,0.9s-1-0.4-1-0.9c0,0,0-1.7,0-2.5c-0.5-0.2-0.7-0.9-0.7-1.4c0-1,0.7-1.7,1.7-1.7s1.7,0.7,1.7,1.7C12,12.1,11.8,12.6,11.3,13z M14.2,6.9C10.9,5,7.9,6,6.4,6.9V5.8c0-2.2,1.5-4.1,3.9-4.1s3.9,1.9,3.9,4.2C14.2,5.8,14.2,6.9,14.2,6.9z"/>
<path id="cloud" transform="translate(2,842)" d="M3.69,8.39a4.69,4.69,0,0,1,8.94-2,2.75,2.75,0,0,1,2-.83,2.81,2.81,0,0,1,2.81,2.81,2.68,2.68,0,0,1-.25,1.15,4.06,4.06,0,0,1,2.75,3.85,4,4,0,0,1-3.75,4.06H4.31A4.38,4.38,0,0,1,3.7,8.72C3.69,8.63,3.69,8.51,3.69,8.39Z"/>
<path id="thumb-up" transform="translate(4,868)" d="M4.47,10.15c0,1.28,0,2.56,0,3.83c0,0.53,0.19,0.71,0.71,0.71c2.29,0,4.58-0.01,6.86,0.01
        c0.59,0,1.02-0.22,1.36-0.67c0.69-0.91,1.38-1.82,2.07-2.74c0.22-0.29,0.32-0.61,0.32-0.97c0-1.1,0-2.19,0-3.29 c0-0.97-0.57-1.55-1.54-1.55c-1.2-0.01-2.4,0-3.6,0c-0.56,0-0.73-0.26-0.54-0.79c0.35-0.93,0.69-1.86,1.02-2.79 c0.06-0.17,0.05-0.37,0.03-0.55c-0.02-0.22-0.17-0.37-0.39-0.42c-0.34-0.08-0.69-0.15-1.04-0.22C9.5,0.67,9.3,0.74,9.13,0.91 C7.71,2.35,6.28,3.79,4.85,5.23C4.57,5.52,4.47,5.87,4.47,6.27C4.47,7.56,4.47,8.85,4.47,10.15z M3.75,10.25c0-1.23,0-2.46,0-3.69c0-0.45-0.24-0.71-0.69-0.71c-0.71-0.01-1.42,0-2.13,0
        c-0.47,0-0.71,0.26-0.71,0.75c0,1.85,0,3.71,0,5.56c0,0.6,0,1.2,0,1.8c0,0.5,0.24,0.74,0.74,0.74c0.69,0,1.39,0,2.08,0 c0.47,0,0.71-0.24,0.71-0.71C3.75,12.74,3.75,11.49,3.75,10.25z"/>
<path id="thumb-down" transform="translate(4,892)" d="M4.47,9.8c0,0.4,0.1,0.75,0.38,1.04c1.43,1.44,2.86,2.88,4.28,4.32c0.17,0.17,0.37,0.24,0.6,0.2
        c0.35-0.07,0.7-0.14,1.04-0.22c0.22-0.05,0.37-0.2,0.39-0.42c0.02-0.18,0.03-0.38-0.03-0.55c-0.33-0.93-0.67-1.86-1.02-2.79 c-0.19-0.53-0.02-0.79,0.54-0.79c1.2,0,2.4,0.01,3.6,0c0.97,0,1.54-0.58,1.54-1.55c0-1.1,0-2.19,0-3.29c0-0.36-0.1-0.68-0.32-0.97 c-0.69-0.92-1.38-1.83-2.07-2.74c-0.34-0.45-0.77-0.67-1.36-0.67C9.76,1.39,7.47,1.38,5.18,1.38c-0.52,0-0.71,0.18-0.71,0.71 c0,1.27,0,2.55,0,3.83C4.47,7.22,4.47,8.51,4.47,9.8z M3.75,2.08c0-0.47-0.24-0.71-0.71-0.71c-0.69,0-1.39,0-2.08,0c-0.5,0-0.74,0.24-0.74,0.74c0,0.6,0,1.2,0,1.8
        c0,1.85,0,3.71,0,5.56c0,0.49,0.24,0.75,0.71,0.75c0.71,0,1.42,0.01,2.13,0c0.45,0,0.69-0.26,0.69-0.71c0-1.23,0-2.46,0-3.69 C3.75,4.58,3.75,3.33,3.75,2.08z"/>
<path id="ip" transform="translate(2,915)" d="M16.88,13.42V6.07l-3.4,3.51Zm-4.24-3-1.72,1.76a1.31,1.31,0,0,1-1.88,0L7.35,10.41,3.46,14.82a1.68,1.68,0,0,0,1.38.77H15.16a1.68,1.68,0,0,0,1.38-.77Zm-3,.7a.5.5,0,0,0,.7,0L16.45,5a1.66,1.66,0,0,0-1.29-.64H4.84A1.68,1.68,0,0,0,3.55,5ZM6.52,9.57,3.13,6.07v7.35Z M0,10A.94.94,0,0,1,.94,9h.94V10.9H.94A.94.94,0,0,1,0,10Z M0,13.09a.94.94,0,0,1,.94-.94h.94V14H.94A.94.94,0,0,1,0,13.09Z M0,6.84A.94.94,0,0,1,.94,5.9h.94V7.78H.94A.94.94,0,0,1,0,6.84Z M20,10A.94.94,0,0,0,19.06,9h-.93V10.9h.93A.94.94,0,0,0,20,10Z M20,13.09a.94.94,0,0,0-.94-.94h-.93V14h.93A.94.94,0,0,0,20,13.09Z M20,6.84a.94.94,0,0,0-.94-.94h-.93V7.78h.93A.94.94,0,0,0,20,6.84Z M5.94.59a.94.94,0,0,1,.94.94V3.09H5V1.53A.94.94,0,0,1,5.94.59Z M10,.59a.94.94,0,0,1,.94.94V3.09H9.06V1.53A.94.94,0,0,1,10,.59Z M14.06.59a.94.94,0,0,1,.94.94V3.09H13.13V1.53A.93.93,0,0,1,14.06.59Z M5.94,19.34a.94.94,0,0,0,.94-.94V16.84H5V18.4A.94.94,0,0,0,5.94,19.34Z M10,19.34a.94.94,0,0,0,.94-.94V16.84H9.06V18.4A.94.94,0,0,0,10,19.34Z M14.06,19.34A.94.94,0,0,0,15,18.4V16.84H13.13V18.4A.93.93,0,0,0,14.06,19.34Z"/>
</g></g><g fill="#FFFFFF" transform="translate(24,0)"><use xlink:href="#icons"/></g>
<g fill="#707070" transform="translate(48,0)"><use xlink:href="#icons"/></g>
<g fill="#1C449B" transform="translate(72,0)"><use xlink:href="#icons"/></g>
<g style="fill:#D6DDED" transform="translate(96,0)"><use xlink:href="#icons"/></g>
</svg>
