<svg id="Ebene_1" xmlns="http://www.w3.org/2000/svg" xmlns:xlink="http://www.w3.org/1999/xlink" viewBox="0 0 300 300"><style>.st0{fill:#1c449b}.st1{clip-path:url(#SVGID_2_);fill:#fff}.st2{fill:#c2c2c2}.st3{fill:#717171}.st4{fill-rule:evenodd;clip-rule:evenodd;fill:#c2c2c2}.st5{fill:#fff}</style><path class="st0" d="M123.6 177.9l-41.5-34.8V219l41.5-41.1zm50.3 0l41.5 41.1v-75.9l-41.5 34.8zm-87.6 52.4h124.9c2 0 3.6-1.4 4.1-3.3l-45.8-45.4-14.4 12c-1.7 1.5-4 2.3-6.4 2.3-2.4 0-4.6-.8-6.4-2.3l-14.4-12L82.2 227c.4 1.9 2.1 3.3 4.1 3.3zM146 189l-62.1-51.9c-1.6-1.6-1.6-4.1 0-5.7L146 79.5c1.6-1.6 4.1-1.6 5.7 0l62.1 51.9c1.6 1.6 1.6 4.1 0 5.7L151.7 189c-1.5 1.5-4.1 1.5-5.7 0z"/><defs><path id="SVGID_1_" d="M83.4 88.3c-1 9.4-.8 47.6.5 49l62.1 51.9c1.6 1.6 4.1 1.6 5.7 0l62.1-51.9c1.4-1.4 1.5-39.6.5-49H83.4z"/></defs><clipPath id="SVGID_2_"><use xlink:href="#SVGID_1_" overflow="visible"/></clipPath><path class="st1" d="M101.1 88.6H198v104.3h-96.9z"/><path class="st2" d="M181.7 134h2.7c.8 0 1.5-.7 1.5-1.5v-6.3h-4.2v7.8zM181.7 145.7h2.7c.8 0 1.5-.7 1.5-1.5v-6.3h-4.2v7.8zM181.7 157.5h1.7c1.4 0 2.5-1.1 2.5-2.5v-5.3h-4.2v7.8z"/><path class="st2" d="M183.4 114.2h-30.2c-1.4 0-2.5 1.1-2.5 2.5v38.2c0 1.4 1.1 2.5 2.5 2.5h25.4v-32c0-1.6.9-2.5 2.5-2.5h4.8v-6.2c0-1.4-1.1-2.5-2.5-2.5zm-18.3 10.7c4.4 0 4.4 3.2 3.9 6.2-.6 3.6-2 4.1-2 4.1-2 1.4-3.7 0-3.7 0s-1.4-.6-2-4.1c-.6-3-1-6.2 3.8-6.2zm-9.3 20.8s.3-5.1.4-5.5c1.1-3.4 2.8-4 4.9-4 .4 0 .5-.1.5-.1s3.2 3.9 7.1 0c0 0 .3.1.5.1 1.8 0 3.8.5 4.8 4.2 0 .4.4 5.3.4 5.3h-18.6z"/><g><path class="st3" d="M113.8 104.7l15.7 15.4v-30zM106.6 111.4c-.7.7-1.7 1.1-2.7 1.1-1 0-2-.4-2.7-1.1l-5.6-5.2-16.7 16.4c.6.8 1.5 1.2 2.5 1.2h45c1 0 1.9-.5 2.5-1.2l-16.7-16.4-5.6 5.2z"/><path class="st3" d="M102.7 109.8c.3.3.8.5 1.2.5.5 0 .9-.2 1.2-.5l23.6-21.9.2-.2c-.6-.8-1.5-1.3-2.5-1.3h-45c-1.1 0-2 .5-2.5 1.3.1.1.1.2.2.2l23.6 21.9zM78.3 90.1v30L94 104.7z"/></g><g><path class="st4" d="M192 86.3v31c0 1.8 1.5 3.4 3.4 3.4h33.3c1.8 0 3.4-1.5 3.4-3.4v-31H192zm16 24.6h-3.9V96l-3.6 2.1-1.2-2.7 5.9-3.6h2.8v19.1zm16.5 0H212v-3l6.2-6.2c1.6-1.7 2.2-2.6 2.2-4.3 0-1.6-.9-2.5-2.8-2.5-2.7 0-4.8 1.5-4.8 1.5l-1.2-2.7s2.4-2.1 6.3-2.1c4.5 0 6.5 2.2 6.5 5.5 0 2.7-1.3 4.4-3.7 6.6l-4.2 4h7.9v3.2zM198.7 70.8c0-.8.7-1.5 1.5-1.5h1.9c.8 0 1.5.7 1.5 1.5V75c0 .8-.7 1.5-1.5 1.5h-1.9c-.8 0-1.5-.7-1.5-1.5v-4.2zM221 70.8c0-.8.7-1.5 1.5-1.5h1.9c.8 0 1.5.7 1.5 1.5V75c0 .8-.7 1.5-1.5 1.5h-1.9c-.8 0-1.5-.7-1.5-1.5v-4.2z"/><path class="st4" d="M229.4 73.7V77c0 1.4-1.2 2.6-2.6 2.6h-6.6c-1.4 0-2.6-1.2-2.6-2.6v-3.4h-10.4V77c0 1.4-1.2 2.6-2.6 2.6H198c-1.4 0-2.6-1.2-2.6-2.6v-3.4c-1.8 0-3.3 1.5-3.3 3.4v5.9h40V77c0-1.6-1.2-3-2.7-3.3z"/></g><g><path id="X" class="st5" d="M167.3 211.4l4.1-6.8h-4.2L165 208l-2.3-3.4h-4.6l4.8 6.8-4.8 7.7h4.6l2.6-4.4 3.1 4.4h4.1z"/><path id="M" class="st5" d="M152.1 204.6l-3.1 7.7-2.9-7.7h-3.8l-2.4 14.5h3.7l1.2-8.4h.1l3.3 8.4h1.5l3.5-8.4h.1l1 8.4h3.8l-2.2-14.5z"/><path id="G" class="st5" d="M132.9 211v3h3.1c-.1 1.7-1.4 2.5-3 2.5-2.5 0-3.8-2.3-3.8-4.5s1.3-4.6 3.8-4.6c1.5 0 2.6.9 3.1 2.3l3.6-1.5c-1.2-2.7-3.5-4-6.5-4-4.7 0-7.8 3.1-7.8 7.8 0 4.5 3.2 7.6 7.7 7.6 2.4 0 4.5-.9 6-2.8 1.3-1.8 1.4-3.6 1.5-5.7h-7.7v-.1z"/></g></svg>