<svg id="Ebene_1" data-name="Ebene 1" xmlns="http://www.w3.org/2000/svg" width="300" height="140" viewBox="0 0 300 140"><defs><style>.cls-1{fill:#1c449b;}</style></defs><title>300x140_gmx_metasuche-01</title><g id="suche_128_fx_gmx"><path class="cls-1" d="M170.56,64.82A27.36,27.36,0,1,1,143.2,37.46h.07A27.38,27.38,0,0,1,170.56,64.82ZM220,5.82V134.16a5.84,5.84,0,0,1-5.83,5.84H85.83A5.85,5.85,0,0,1,80,134.16V5.82A5.84,5.84,0,0,1,85.83,0H214.18A5.85,5.85,0,0,1,220,5.82ZM197,107.71,175.41,86.17a38.73,38.73,0,1,0-7.61,8.43l21.12,21.19a5.71,5.71,0,0,0,8.08-8.08H197Z"/></g></svg>