<?xml version="1.0" encoding="UTF-8" standalone="no"?>
<!-- Created with Inkscape (http://www.inkscape.org/) -->

<svg
   xmlns:dc="http://purl.org/dc/elements/1.1/"
   xmlns:cc="http://creativecommons.org/ns#"
   xmlns:rdf="http://www.w3.org/1999/02/22-rdf-syntax-ns#"
   xmlns:svg="http://www.w3.org/2000/svg"
   xmlns="http://www.w3.org/2000/svg"
   xmlns:sodipodi="http://sodipodi.sourceforge.net/DTD/sodipodi-0.dtd"
   xmlns:inkscape="http://www.inkscape.org/namespaces/inkscape"
   width="100"
   height="100"
   id="svg4088"
   version="1.1"
   inkscape:version="0.48.4 r9939"
   sodipodi:docname="bigplay-svg-only.svg">
  <defs
     id="defs4090"><filter
   inkscape:collect="always"
   id="filter5328"
   color-interpolation-filters="sRGB">
  <feGaussianBlur
     inkscape:collect="always"
     stdDeviation="3.163206"
     id="feGaussianBlur5330" />
</filter>
<filter
   inkscape:collect="always"
   id="filter5332"
   x="-0.25535467"
   width="1.5107093"
   y="-0.25148886"
   height="1.5029777"
   color-interpolation-filters="sRGB">
  <feGaussianBlur
     inkscape:collect="always"
     stdDeviation="3.163206"
     id="feGaussianBlur5334" />
</filter>

	
		
	

			
			
		</defs>
  <sodipodi:namedview
     id="base"
     pagecolor="#ffffff"
     bordercolor="#666666"
     borderopacity="1.0"
     inkscape:pageopacity="0.0"
     inkscape:pageshadow="2"
     inkscape:zoom="4"
     inkscape:cx="32.650424"
     inkscape:cy="36.236871"
     inkscape:document-units="px"
     inkscape:current-layer="g5016"
     showgrid="false"
     showguides="true"
     inkscape:guide-bbox="true"
     inkscape:window-width="1920"
     inkscape:window-height="1138"
     inkscape:window-x="1912"
     inkscape:window-y="-8"
     inkscape:window-maximized="1"
     fit-margin-top="0"
     fit-margin-left="0"
     fit-margin-right="0"
     fit-margin-bottom="0">
    <inkscape:grid
       type="xygrid"
       id="grid5270"
       empspacing="5"
       visible="true"
       enabled="true"
       snapvisiblegridlinesonly="true"
       originx="-399.38009px"
       originy="-425.39392px" />
  </sodipodi:namedview>
  <metadata
     id="metadata4093">
    <rdf:RDF>
      <cc:Work
         rdf:about="">
        <dc:format>image/svg+xml</dc:format>
        <dc:type
           rdf:resource="http://purl.org/dc/dcmitype/StillImage" />
        <dc:title></dc:title>
      </cc:Work>
    </rdf:RDF>
  </metadata>
  <g
     inkscape:label="Ebene 1"
     inkscape:groupmode="layer"
     id="layer1"
     transform="translate(-399.38009,-526.96827)">
    <g
       style="opacity:0.9"
       transform="translate(272.47178,529.18907)"
       id="g5016">
		<path
   id="path5020-9"
   d="m 166.15965,32.381681 29.73,14.84 -29.73,15.347 v -30.187 z"
   style="opacity:0.34006731;fill:#000000;fill-rule:evenodd;filter:url(#filter5332)"
   inkscape:connector-curvature="0" />
<path
   id="path5020-0"
   d="m 164.15965,30.381683 29.73,14.839999 -29.73,15.347 V 30.381683 z"
   style="opacity:0.93;fill:#ffffff;fill-rule:evenodd"
   inkscape:connector-curvature="0" />
<path
   id="path5022-2"
   d="m 177.09965,9.516681 c -21.034,0 -38.085,17.051 -38.085,38.085 0,21.034 17.051,38.085 38.085,38.085 21.034,0 38.085,-17.051 38.085,-38.085 0,-21.033 -17.051,-38.085 -38.085,-38.085 z m 0,67.946 c -16.492,0 -29.861,-13.369 -29.861,-29.861 0,-16.492 13.369,-29.861 29.861,-29.861 16.492,0 29.861,13.369 29.861,29.861 0,16.492 -13.369,29.861 -29.861,29.861 z"
   style="opacity:0.34006731;fill:#000000;fill-rule:evenodd;stroke:#000000;stroke-opacity:1;filter:url(#filter5328)"
   inkscape:connector-curvature="0" />
<path
   id="path5022-8"
   d="m 175.09965,7.516683 c -21.034,0 -38.085,17.051 -38.085,38.084999 0,21.034 17.051,38.085 38.085,38.085 21.034,0 38.085,-17.051 38.085,-38.085 0,-21.032999 -17.051,-38.084999 -38.085,-38.084999 z m 0,67.945999 c -16.492,0 -29.861,-13.369 -29.861,-29.861 0,-16.491999 13.369,-29.860999 29.861,-29.860999 16.492,0 29.861,13.369 29.861,29.860999 0,16.492 -13.369,29.861 -29.861,29.861 z"
   style="fill:#ffffff;fill-rule:evenodd;opacity:0.93"
   inkscape:connector-curvature="0" />

	</g>
  </g>
</svg>
