<?xml version="1.0" encoding="UTF-8" standalone="no"?>
<!-- Generator: Adobe Illustrator 17.1.0, SVG Export Plug-In . SVG Version: 6.00 Build 0)  -->

<svg
   xmlns:dc="http://purl.org/dc/elements/1.1/"
   xmlns:cc="http://creativecommons.org/ns#"
   xmlns:rdf="http://www.w3.org/1999/02/22-rdf-syntax-ns#"
   xmlns:svg="http://www.w3.org/2000/svg"
   xmlns="http://www.w3.org/2000/svg"
   xmlns:sodipodi="http://sodipodi.sourceforge.net/DTD/sodipodi-0.dtd"
   xmlns:inkscape="http://www.inkscape.org/namespaces/inkscape"
   version="1.0"
   x="0px"
   y="0px"
   width="144px"
   height="32px"
   viewBox="0 0 144 32"
   style="enable-background:new 0 0 144 32;"
   xml:space="preserve"
   id="svg2"
   inkscape:version="0.48.4 r9939"
   sodipodi:docname="video_player_sprites.svg"><metadata
   id="metadata33"><rdf:RDF><cc:Work
       rdf:about=""><dc:format>image/svg+xml</dc:format><dc:type
         rdf:resource="http://purl.org/dc/dcmitype/StillImage" /></cc:Work></rdf:RDF></metadata><defs
   id="defs31" /><sodipodi:namedview
   pagecolor="#ffffff"
   bordercolor="#666666"
   borderopacity="1"
   objecttolerance="10"
   gridtolerance="10"
   guidetolerance="10"
   inkscape:pageopacity="0"
   inkscape:pageshadow="2"
   inkscape:window-width="1920"
   inkscape:window-height="1153"
   id="namedview29"
   showgrid="false"
   showguides="true"
   inkscape:guide-bbox="true"
   inkscape:zoom="1"
   inkscape:cx="50.174929"
   inkscape:cy="21.490852"
   inkscape:window-x="-4"
   inkscape:window-y="-4"
   inkscape:window-maximized="1"
   inkscape:current-layer="svg2"><sodipodi:guide
     orientation="1,0"
     position="-549,82"
     id="guide3012" /><sodipodi:guide
     orientation="0,1"
     position="-264,-219"
     id="guide3014" /><sodipodi:guide
     orientation="1,0"
     position="-479,-49"
     id="guide3016" /><sodipodi:guide
     orientation="0,1"
     position="-218,-327"
     id="guide3018" /></sodipodi:namedview>
<g
   id="BG"
   style="display:none;">
	<rect
   style="display:inline;fill:#939393;"
   width="144"
   height="32"
   id="rect5" />
</g>
<g
   id="ICONS">
	<polygon
   id="PLAY"
   style="fill-rule:evenodd;clip-rule:evenodd;fill:#FFFFFF;"
   points="3,2 14,8 3,14 3,2  " />
	<g
   id="PAUSE">
		<polygon
   style="fill-rule:evenodd;clip-rule:evenodd;fill:#FFFFFF;"
   points="3,18 7.571,18 7.571,30 3,30 3,18   "
   id="polygon10" />
		<polygon
   style="fill-rule:evenodd;clip-rule:evenodd;fill:#FFFFFF;"
   points="10.429,18 15,18 15,30 10.429,30 10.429,18   "
   id="polygon12" />
	</g>
	<g
   id="VOLUME_ON_1_">
		<path
   style="fill:#FFFFFF;"
   d="M26.393,28.056v-0.924c0,0,2.291-0.496,2.291-3.133c0-2.613-2.291-3.133-2.291-3.133v-0.924    c0,0,3.303,0.619,3.303,4.08C29.696,27.61,26.393,28.056,26.393,28.056L26.393,28.056z M27.337,30v-0.911    c0,0,3.606-0.655,3.606-5.089c0-4.316-3.606-5.061-3.606-5.061V18c0,0,4.579,0.878,4.579,6.035C31.916,29.379,27.337,30,27.337,30    L27.337,30z"
   id="path15" />
		<polygon
   style="fill-rule:evenodd;clip-rule:evenodd;fill:#FFFFFF;"
   points="25,18.5 20.592,21.643 17,21.643 17,26.357     20.592,26.357 25,29.5   "
   id="polygon17" />
	</g>
	<g
   id="VOLUME_OFF">
		<polygon
   style="fill-rule:evenodd;clip-rule:evenodd;fill:#FFFFFF;"
   points="31,6.633 30.367,6 29,7.367 27.633,6 27,6.633     28.367,8 27,9.367 27.633,10 29,8.633 30.367,10 31,9.367 29.633,8   "
   id="polygon20" />
		<polygon
   style="fill-rule:evenodd;clip-rule:evenodd;fill:#FFFFFF;"
   points="25,2.5 20.592,5.643 17,5.643 17,10.357     20.592,10.357 25,13.5   "
   id="polygon22" />
	</g>
	<path
   style="fill-rule:evenodd;clip-rule:evenodd;fill:#FFFFFF;"
   d="M34,3v10h12V3H34z M35.043,4.111h9.913v2.778h-7.304v5h-2.609   V4.111z"
   id="path24" />
	
	
	<path
   id="REGLER"
   style="fill-rule:evenodd;clip-rule:evenodd;fill:#FFFFFF;"
   d="M70,3.5h3c0.552,0,1,0.448,1,1v7   c0,0.552-0.448,1-1,1h-3c-0.552,0-1-0.448-1-1v-7C69,3.948,69.448,3.5,70,3.5z" />
</g>
<g
   style="font-size:40px;font-style:normal;font-weight:normal;line-height:125%;letter-spacing:0px;word-spacing:0px;fill:#ffffff;fill-opacity:1;stroke:none;font-family:Sans"
   id="text3020"><path
     d="m 48.880982,12.329575 2.639966,0 0,-3.3959567 2.471968,0 0,3.3959567 2.639966,0 0,-8.5678901 -2.639966,0 0,2.9759617 -2.471968,0 0,-2.9759617 -2.639966,0 z"
     style="font-size:12px;font-variant:normal;font-weight:900;font-stretch:normal;fill:#ffffff;font-family:HelveticaNeueLT Pro 95 Blk;-inkscape-font-specification:HelveticaNeueLT Pro 95 Blk Heavy"
     id="path3007" /><path
     d="m 60.638136,5.9576566 0.839989,0 c 0.630061,0.015191 1.093906,0.1514856 1.391537,0.4088835 0.29762,0.2574098 0.488581,0.5448132 0.572882,0.8622111 0.08429,0.3174081 0.121473,0.5737009 0.111554,0.7688792 0.02349,0.4407482 -0.08651,0.8972419 -0.329996,1.3694822 -0.243502,0.4722463 -0.761495,0.7277424 -1.55398,0.7664904 l -1.031986,0 z m -2.639966,6.3719184 3.815951,0 c 1.489724,-0.014 2.593209,-0.399995 3.310457,-1.157986 0.717232,-0.757988 1.073727,-1.8039734 1.069486,-3.1379591 0.005,-0.7327263 -0.118303,-1.421902 -0.369773,-2.067529 C 65.572805,5.3204866 65.163329,4.7948643 64.595863,4.3892324 64.028382,3.9836164 63.273133,3.7744341 62.330114,3.7616849 l -4.331944,0 z"
     style="font-size:12px;font-variant:normal;font-weight:900;font-stretch:normal;fill:#ffffff;font-family:HelveticaNeueLT Pro 95 Blk;-inkscape-font-specification:HelveticaNeueLT Pro 95 Blk Heavy"
     id="path3009" /></g>
</svg>