<svg id="Ebene_1" data-name="Ebene 1" xmlns="http://www.w3.org/2000/svg" width="140" height="140" viewBox="0 0 140 140"><defs><style>.cls-1{fill:#204698;}</style></defs><title>140x140_gmx</title><g id="onlineoffice_128_fx_gmx"><path class="cls-1" d="M74.1,11.53H20.29a7.83,7.83,0,0,0-7.83,7.83V99a7.84,7.84,0,0,0,7.83,7.83H55V83.69H27.32a2,2,0,1,1,0-4H55V73.4H27.32a2,2,0,1,1,0-4H55V63.12H27.32a2,2,0,0,1,0-4H55V52.79H27.32a2,2,0,0,1-2-2h0a2,2,0,0,1,2-2H55V39.5A11.19,11.19,0,0,1,66.17,28.31H81.93V19.36A7.83,7.83,0,0,0,74.1,11.53Z"/><path class="cls-1" d="M110.86,32.87H67.06a7.83,7.83,0,0,0-7.83,7.84v79.63a7.83,7.83,0,0,0,7.83,7.84h53.8a7.84,7.84,0,0,0,7.84-7.84h0V50.7Zm-28,12.77A12.42,12.42,0,0,1,95.29,58H83ZM66.39,62.21a12.4,12.4,0,0,1,12.4-12.4h0V62.12H91.18a12.41,12.41,0,0,1-24.8,0Zm50.82,53.47H85a2,2,0,0,1,0-4h32.17a2,2,0,0,1,0,4Zm0-9.85H85a2,2,0,0,1,0-4h32.17a2,2,0,1,1,0,4Zm0-9.83H85a2,2,0,0,1,0-4h32.17a2,2,0,1,1,0,4ZM110,52.93V38.24L124.78,53Z"/></g></svg>