<svg id="Ebene_1" data-name="Ebene 1" xmlns="http://www.w3.org/2000/svg" width="140" height="140" viewBox="0 0 140 140"><defs><style>.cls-1,.cls-2{fill:#1c449b;}.cls-2{fill-rule:evenodd;}</style></defs><title>140x140_funktion_05</title><rect class="cls-1" x="38" y="16.19" width="15.6" height="17.01" rx="3.2" ry="3.2"/><rect class="cls-1" x="87.51" y="16.19" width="15.6" height="17.01" rx="3.2" ry="3.2"/><path class="cls-2" d="M107.63,24.73V31.9A5.64,5.64,0,0,1,102,37.52H88.61A5.64,5.64,0,0,1,83,31.9V24.58H58.25V31.9a5.64,5.64,0,0,1-5.62,5.62H39.23a5.64,5.64,0,0,1-5.62-5.62V24.59a7.33,7.33,0,0,0-7.1,7.3V44.62h87V31.89A7.32,7.32,0,0,0,107.63,24.73Z"/><path class="cls-2" d="M26.51,49v67.48a7.32,7.32,0,0,0,7.3,7.3h72.36a7.32,7.32,0,0,0,7.3-7.3V49Zm33.32,60H52.64V76.67H43.38V72h.69c4.29,0,9.2-1.07,10.53-6.68v-.89h5.23Zm35.47,0H69.2c0-19.47,18.72-19,18.72-32.84,0-3.72-1.58-6.74-5.55-6.74-5.36,0-6.24,4.79-6.24,9.33H69.32C69.32,70,73,64.44,82.5,64.44c9.08,0,12.61,5.42,12.61,11.92,0,14.81-14.57,15.69-17.91,26.66H95.3Z"/></svg>