<svg id="Ebene_1" data-name="Ebene 1" xmlns="http://www.w3.org/2000/svg" width="140" height="140" viewBox="0 0 140 140"><defs><style>.cls-1{fill:#1c449b;}</style></defs><title>140x140_funktion_03</title><path class="cls-1" d="M104.19,65.48h7A3.84,3.84,0,0,0,115,61.66V39.94H104.19Z"/><path class="cls-1" d="M104.19,95.25h7A3.84,3.84,0,0,0,115,91.42V69.7H104.19Z"/><path class="cls-1" d="M104.19,125h7.34a3.45,3.45,0,0,0,3.44-3.44V99.47H104.19Z"/><path class="cls-1" d="M25,18.42V121.58A3.45,3.45,0,0,0,28.47,125h6.65V15H28.47A3.45,3.45,0,0,0,25,18.42Z"/><path class="cls-1" d="M111.53,15H39.7V125H99.49V38.26a3.43,3.43,0,0,1,3.43-3.44h12V18.42A3.45,3.45,0,0,0,111.53,15ZM70.21,47.74c8.85,0,8.83,6.46,7.8,12.43C76.8,67.28,74.1,68.29,74,68.39a6.16,6.16,0,0,1-7.49,0s-2.85-1.11-4.06-8.22C61.38,54.2,60.64,47.74,70.21,47.74ZM51.53,89.48s.68-10.28.77-11c2.25-6.88,5.53-8,9.84-8,.85,0,1-.27,1-.27s6.32,7.7,14.18.07a8.51,8.51,0,0,0,1.06.17c3.66,0,7.68.92,9.61,8.48.1.73.74,10.62.74,10.62Z"/></svg>