<svg id="Ebene_1" data-name="Ebene 1" xmlns="http://www.w3.org/2000/svg" width="300" height="300" viewBox="0 0 300 300"><defs><style>.cls-1{fill:#c2c2c2;}.cls-2{fill:#1c449b;}</style></defs><title>300x300_hilfe_01</title><polygon class="cls-1" points="102.01 100.71 126.82 125.06 126.82 77.63 102.01 100.71"/><path class="cls-1" d="M90.6,111.33a6.4,6.4,0,0,1-8.6,0l-8.83-8.21L46.76,129.05a4.9,4.9,0,0,0,3.93,2h71.22a4.92,4.92,0,0,0,3.93-2L99.42,103.12Z"/><path class="cls-1" d="M84.34,108.81a3,3,0,0,0,3.91,0L125.6,74.07a2.3,2.3,0,0,0,.33-.38,4.88,4.88,0,0,0-4-2.11H50.69a4.93,4.93,0,0,0-4,2.1,2.5,2.5,0,0,0,.34.39Z"/><polygon class="cls-1" points="45.77 77.63 45.77 125.05 70.58 100.7 45.77 77.63"/><polygon class="cls-1" points="240.54 112.82 255.43 127.44 255.43 98.97 240.54 112.82"/><path class="cls-1" d="M233.68,119.2a3.83,3.83,0,0,1-5.16,0l-5.3-4.93-15.86,15.56a3,3,0,0,0,2.36,1.19h42.76a3,3,0,0,0,2.36-1.18L239,114.27Z"/><path class="cls-1" d="M229.93,117.68a1.69,1.69,0,0,0,1.17.45,1.72,1.72,0,0,0,1.18-.45L254.7,96.83a2.2,2.2,0,0,0,.2-.23,3,3,0,0,0-2.42-1.26H209.72a2.93,2.93,0,0,0-2.41,1.26,1.07,1.07,0,0,0,.2.23Z"/><polygon class="cls-1" points="206.77 98.97 206.77 127.44 221.67 112.82 206.77 98.97"/><path class="cls-2" d="M157.25,95.78a71,71,0,1,0,70.95,71A71,71,0,0,0,157.25,95.78ZM163,213.9H148.25V199.13H163Zm-.65-30.32V189H149.15v-7.77c0-18.66,18.79-18.14,18.79-36.8,0-7.25-2.59-13.73-10.5-13.73-8.81,0-11.66,7.38-11.66,18.26h-14c0-16.19,6.87-29.41,25.52-29.41,16.2,0,25.4,8.81,25.4,24.88C182.71,166.48,162.37,170.23,162.37,183.58Z"/></svg>