<?xml version="1.0" encoding="utf-8"?>
<!-- Generator: Adobe Illustrator 22.0.1, SVG Export Plug-In . SVG Version: 6.00 Build 0)  -->
<svg version="1.1" id="Ebene_1" xmlns="http://www.w3.org/2000/svg" xmlns:xlink="http://www.w3.org/1999/xlink" x="0px" y="0px"
	 viewBox="0 0 300 300" style="enable-background:new 0 0 300 300;" xml:space="preserve">
<style type="text/css">
	.st0{fill-rule:evenodd;clip-rule:evenodd;fill:#C2C2C2;}
	.st1{fill:#1C449B;}
</style>
<g>
	<path class="st0" d="M75.7,55.8c-16.3,0-29.6,13.2-29.6,29.6c0,16.3,13.2,29.6,29.6,29.6s29.6-13.2,29.6-29.6
		C105.3,69,92.1,55.8,75.7,55.8z M78.7,101.3h-5V78.8h-6.4v-3.2h0.5c3,0,6.4-0.7,7.3-4.6v-0.6h3.6V101.3z"/>
	<path class="st0" d="M149.9,55.6c-16.3,0-29.6,13.2-29.6,29.6s13.2,29.6,29.6,29.6s29.6-13.2,29.6-29.6S166.2,55.6,149.9,55.6z
		 M159.2,101.3H141c0-13.5,13-13.2,13-22.8c0-2.6-1.1-4.7-3.8-4.7c-3.7,0-4.3,3.3-4.3,6.5h-4.7c0-6.1,2.5-10,9.1-10
		c6.3,0,8.7,3.8,8.7,8.3c0,10.3-10.1,10.9-12.4,18.5h12.6V101.3z"/>
	<path class="st0" d="M224.3,55.8c-16.3,0-29.6,13.2-29.6,29.6s13.2,29.6,29.6,29.6s29.6-13.2,29.6-29.6S240.6,55.8,224.3,55.8z
		 M224.3,101.9c-5.6,0-8.8-2.8-8.8-9.2h4.7c0,2.7,0.9,5.7,4.2,5.7c3.1,0,4.3-2.5,4.3-5.6c0-3.8-1.2-5.8-5-5.8h-1.9v-3.5h1.8
		c3.3,0,4.5-2.3,4.5-5.3c0-2.2-1-4.5-3.6-4.5c-3.1,0-3.9,2.6-3.9,5.4h-4.7c0-5.8,3-8.9,8.9-8.9c3.7,0,8.3,1.7,8.3,7.9
		c0,3.2-1.9,6.3-4.9,6.8v0.1c3.2,0.3,5.6,2.8,5.6,7.2C233.7,98.5,230.7,101.9,224.3,101.9z"/>
</g>
<path class="st1" d="M147.2,193.7l-66.4-55.6c0.4-1.9,2.2-3.4,4.2-3.4H215c2.1,0,3.8,1.4,4.2,3.4l-66.4,55.6c-0.8,0.6-1.8,1-2.8,1
	S148,194.4,147.2,193.7z M123.9,182l-43.2-36.1v78.9L123.9,182z M176.1,182l43.2,42.8v-78.9L176.1,182z M85,236.4H215
	c2.1,0,3.8-1.4,4.2-3.4l-47.6-47.2l-14.9,12.5c-1.8,1.5-4.2,2.4-6.6,2.4c-2.4,0-4.8-0.8-6.6-2.4l-14.9-12.5L80.8,233
	C81.2,234.9,83,236.4,85,236.4z"/>
</svg>
