<svg id="Ebene_1" data-name="Ebene 1" xmlns="http://www.w3.org/2000/svg" width="300" height="300" viewBox="0 0 300 300"><defs><style>.cls-1{fill:#727272;}.cls-2{fill:#c3c2c2;}.cls-3{fill:#204698;}</style></defs><title>MMSGK-4027_Email02</title><path class="cls-1" d="M90.3,196.66q3.39,6.54,2.94,16.68A18.91,18.91,0,0,1,90.51,223,7.43,7.43,0,0,1,84,226.76a2.74,2.74,0,0,1-2.36-1.31c-.6-.86-.8-2.45-.62-4.77l1.75-19.88h-.16l.1-.13a25.12,25.12,0,0,0-5.07-2.75,17.13,17.13,0,0,0-6.11-.85q-5.7,0-9.7,5.32T57,216.51q-.6,6.74,1.84,10.84a7.77,7.77,0,0,0,7,4.1,11,11,0,0,0,5.49-1.35,11.21,11.21,0,0,0,4-4.1A8,8,0,0,0,78,230.08a7,7,0,0,0,4.45,1.44q7.84,0,11.77-5.35a22.6,22.6,0,0,0,4.26-12.78,38.62,38.62,0,0,0-2.62-16.69Zm-15.46,24a2.36,2.36,0,0,1-.06.69,2,2,0,0,0,0,.55,7.74,7.74,0,0,1-3,3,8.52,8.52,0,0,1-3.74.84,3.52,3.52,0,0,1-3.4-2.36,15.12,15.12,0,0,1-.69-6.94q.66-7.11,2.78-10.62a6.83,6.83,0,0,1,6.18-3.52,8.9,8.9,0,0,1,1.86.19,10.79,10.79,0,0,1,1.68.49Z"/><path class="cls-1" d="M75.66,240.61a27.55,27.55,0,0,1-6.07.68q-10.67,0-16.33-7.2t-5.07-19.76q.53-12.5,6.82-20.09t16.81-7.58a25.18,25.18,0,0,1,9.67,1.71V183.2A31.76,31.76,0,0,0,72,181.85q-13,0-21.05,9t-8.63,23.54q-.6,14.83,6.66,23.41t20.53,8.56a31.33,31.33,0,0,0,7-.78,18.93,18.93,0,0,0,5.85-2.25L81,238.84A22.1,22.1,0,0,1,75.66,240.61Z"/><path class="cls-2" d="M234.73,113.32a24.86,24.86,0,0,1-5.44.61,19.33,19.33,0,0,1-10.42-2.67v5.34a27.24,27.24,0,0,0,10.3,1.82,27.74,27.74,0,0,0,6.22-.72,16.85,16.85,0,0,0,5.25-2l-1.17-4A19.69,19.69,0,0,1,234.73,113.32Z"/><path class="cls-2" d="M249.47,66.69q-6.28-7.56-18.06-7.57t-18.83,8q-7.19,8-7.76,21.07-.49,12.3,5,19.76v-3.53h3.82q-4-6.23-3.53-16.25.45-11.19,6.1-18a18.56,18.56,0,0,1,15.05-6.78q10.09,0,14.91,6.28t4.3,17.6a17.07,17.07,0,0,1-2.44,8.63,6.69,6.69,0,0,1-5.86,3.4,2.47,2.47,0,0,1-2.12-1.17c-.52-.77-.71-2.2-.56-4.28l1.57-17.81h-.15L241,76a22.94,22.94,0,0,0-4.54-2.47,15.26,15.26,0,0,0-5.49-.78q-5.12,0-8.69,4.77c-2.38,3.18-3.83,7.39-4.32,12.64q-.55,6,1.65,9.7a6.93,6.93,0,0,0,6.27,3.68,9.29,9.29,0,0,0,8.53-4.89,7.14,7.14,0,0,0,2.41,3.66,6.35,6.35,0,0,0,4,1.28q7,0,10.58-4.79a20.28,20.28,0,0,0,3.81-11.44Q255.73,74.25,249.47,66.69ZM234,93.91a2.21,2.21,0,0,1-.05.61,1.68,1.68,0,0,0,0,.5,7,7,0,0,1-2.74,2.69,7.49,7.49,0,0,1-3.35.78,3.13,3.13,0,0,1-3.05-2.12,14.22,14.22,0,0,1-.61-6.21q.59-6.37,2.49-9.52a6.08,6.08,0,0,1,5.54-3.14,8.41,8.41,0,0,1,1.66.16,9.94,9.94,0,0,1,1.5.45Z"/><path class="cls-3" d="M146.05,159.8,79,103.62a4.37,4.37,0,0,1,4.26-3.42H214.5a4.36,4.36,0,0,1,4.22,3.41L151.64,159.8a4.56,4.56,0,0,1-5.62,0Zm-23.54-11.91L78.87,111.37v79.71Zm52.79,0,43.61,43.22V111.36Zm-92.06,55H214.5a4.37,4.37,0,0,0,4.26-3.41l-48.14-47.7-15.09,12.64a10.57,10.57,0,0,1-13.34,0L127.1,151.77,79,199.42A4.35,4.35,0,0,0,83.24,202.88Z"/></svg>