<svg id="Ebene_1" data-name="Ebene 1" xmlns="http://www.w3.org/2000/svg" width="220" height="220" viewBox="0 0 220 220"><defs><style>.cls-1{fill:#1c449b}</style></defs><title>220x220_passwort_02-01</title><path class="cls-1" d="M192.76 84.41H27.24A6.32 6.32 0 0 0 21 90.76v40.48a6.32 6.32 0 0 0 6.24 6.35h165.52a6.32 6.32 0 0 0 6.24-6.35V90.76a6.32 6.32 0 0 0-6.24-6.35zM50.29 116.77l-2.76 2.15-3.53-5.09-3.42 5-2.72-2.1 3.54-4.88-5.69-2 1.12-3.32 5.6 2v-6.06h3.3v6.06l5.61-1.94 1 3.32-5.61 1.89zm18.85 0l-2.76 2.15-3.55-5.09-3.42 5-2.72-2.1 3.54-4.88-5.69-2 1.12-3.32 5.6 2v-6.06h3.3v6.06l5.61-1.94 1 3.32-5.61 1.89zm18.85 0l-2.76 2.15-3.55-5.09-3.42 5-2.72-2.1 3.54-4.88-5.69-2 1.12-3.32 5.61 2v-6.06h3.29v6.06L89 106.6l1 3.32-5.61 1.89zm18.85 0l-2.76 2.15-3.54-5.09-3.43 5-2.72-2.1 3.55-4.88-5.69-2 1.11-3.32 5.61 2v-6.06h3.29v6.06l5.61-1.94 1 3.32-5.6 1.89zm18.85 0l-2.76 2.15-3.54-5.09-3.43 5-2.72-2.1 3.55-4.88-5.69-2 1.11-3.32 5.61 2v-6.06h3.3v6.06l5.6-1.94 1 3.32-5.6 1.89zm18.85 0l-2.76 2.15-3.54-5.09-3.43 5-2.72-2.1 3.55-4.88-5.69-2 1.11-3.32 5.61 2v-6.06H140v6.06l5.6-1.94 1 3.32-5.6 1.9zm18.86 0l-2.77 2.15-3.54-5.09-3.43 5-2.72-2.1 3.55-4.88-5.69-2 1.11-3.32 5.61 2v-6.06h3.3v6.06l5.61-1.94 1 3.32-5.61 1.89zm18.85 0l-2.77 2.15-3.54-5.09-3.42 5-2.73-2.1 3.55-4.88-5.69-2 1.11-3.32 5.61 2v-6.06h3.3v6.06l5.61-1.94 1 3.32-5.61 1.89z"/></svg>