<svg id="Ebene_1" data-name="Ebene 1" xmlns="http://www.w3.org/2000/svg" width="300" height="300" viewBox="0 0 300 300"><defs><style>.cls-1{fill:#204698;}.cls-2{fill:#727272;}</style></defs><title>MMSGK-4027_Email02</title><path class="cls-1" d="M146,160.89,78.53,104.4A4.4,4.4,0,0,1,82.82,101h132a4.39,4.39,0,0,1,4.28,3.42l-67.45,56.5A4.58,4.58,0,0,1,146,160.89Zm-23.72-12L78.41,112.2v80.15Zm53.08,0,43.87,43.45V112.18ZM82.82,204.21h132a4.38,4.38,0,0,0,4.29-3.43l-48.41-47.94-15.14,12.71a10.64,10.64,0,0,1-13.46,0l-15.14-12.73L78.55,200.76A4.39,4.39,0,0,0,82.82,204.21Z"/><path class="cls-2" d="M180.3,231.86c3.43,1,6.75,2.28,10.2,2.83a156.31,156.31,0,0,0,16.17,1.72,99,99,0,0,0,22.54-1.28c4.2-.72,8.37-1.55,12.25-3.74a6.32,6.32,0,0,1,.16.86c0,3.54,0,7.08,0,10.61a2.29,2.29,0,0,1-1.12,2.17,24.27,24.27,0,0,1-8.19,3c-10.29,2.22-20.7,2.36-31.15,1.66a67.07,67.07,0,0,1-14.63-2.43,27,27,0,0,1-5.17-2.27,2.54,2.54,0,0,1-1.12-1.85c-.11-3.62-.06-7.24-.05-10.86A.93.93,0,0,1,180.3,231.86Z"/><path class="cls-2" d="M180.34,215.46c2.28.79,4.47,1.71,6.74,2.3a89,89,0,0,0,20.1,2.56,111.55,111.55,0,0,0,20.25-1.09c4.67-.73,9.38-1.48,13.62-3.81a1.67,1.67,0,0,1,.46-.09c0,.3.1.58.11.86,0,3.41,0,6.82,0,10.23a2.27,2.27,0,0,1-1.33,2.42,57.17,57.17,0,0,1-8,2.84c-10.31,2.34-20.77,2.42-31.27,1.7a65.8,65.8,0,0,1-14.5-2.42,27.38,27.38,0,0,1-5.18-2.26,2.58,2.58,0,0,1-1.12-1.86c-.11-3.62-.05-7.24,0-10.87A1.88,1.88,0,0,1,180.34,215.46Z"/><path class="cls-2" d="M241.53,199.3a10.28,10.28,0,0,1,.09,1c0,3.11-.13,6.22,0,9.32a3.24,3.24,0,0,1-2.44,3.61,65.83,65.83,0,0,1-8.63,2.6,111.55,111.55,0,0,1-30.91,1.2,60,60,0,0,1-14.31-2.68,23.13,23.13,0,0,1-4.27-2.09,2.21,2.21,0,0,1-.86-1.6c-.07-3.62,0-7.24,0-10.87a1.69,1.69,0,0,1,.16-.47c9.75,4.39,20.17,5,30.57,5S231.72,203.75,241.53,199.3Z"/><path class="cls-2" d="M212.13,188.67c6.88,0,14.93.42,22.8,2.44a22.58,22.58,0,0,1,5.26,2.1c2,1.11,1.94,2.6,0,3.85a23.28,23.28,0,0,1-8.55,2.8,120.51,120.51,0,0,1-33,1.09,125.1,125.1,0,0,1-12.72-2.16,14.4,14.4,0,0,1-4.26-1.81c-1.9-1.14-1.93-2.74,0-3.76a27.41,27.41,0,0,1,6.25-2.35C195.48,189.07,203.19,188.68,212.13,188.67Z"/></svg>