<svg id="Ebene_1" data-name="Ebene 1" xmlns="http://www.w3.org/2000/svg" width="140" height="140" viewBox="0 0 140 140"><defs><style>.cls-1{fill:#717171;}.cls-2{fill:#1c449b;}</style></defs><title>140x140_pgp_04</title><path class="cls-1" d="M70,9.5A36.36,36.36,0,0,0,33.69,45.82V82.33H45.08V54.06h0V45.82a24.94,24.94,0,0,1,49.88,0v8.25h0V82.33h11.39V45.82A36.36,36.36,0,0,0,70,9.5Z"/><path class="cls-2" d="M70,44.61a42.95,42.95,0,1,0,42.94,43A42.94,42.94,0,0,0,70,44.61Zm7.07,42v19a7.07,7.07,0,1,1-14.14,0v-19a11.3,11.3,0,1,1,14.14,0Z"/></svg>