<svg id="Ebene_1" data-name="Ebene 1" xmlns="http://www.w3.org/2000/svg" width="300" height="300" viewBox="0 0 300 300"><defs><style>.cls-1{fill:#c3c2c2;}.cls-2{fill:#204698;}.cls-3{fill:#727272;}</style></defs><title>MMSGK-4027_Email02</title><path class="cls-1" d="M244.88,149,217.32,125.9a1.8,1.8,0,0,1,1.75-1.4H273a1.81,1.81,0,0,1,1.75,1.4L247.18,149a1.75,1.75,0,0,1-1.15.4A1.77,1.77,0,0,1,244.88,149Zm-9.69-4.9-17.91-15v32.74Zm21.69,0,17.92,17.75V129.08Zm-37.8,22.59H273a1.79,1.79,0,0,0,1.75-1.4L255,145.68l-6.2,5.19a4.32,4.32,0,0,1-5.48,0l-6.2-5.19-19.77,19.58A1.81,1.81,0,0,0,219.08,166.67Z"/><path class="cls-1" d="M144.77,43.81l-15-12.53a1,1,0,0,1,.95-.76h29.3a1,1,0,0,1,.95.76l-15,12.54a1,1,0,0,1-.63.22A1.19,1.19,0,0,1,144.77,43.81Zm-5.26-2.66L129.77,33V50.79Zm11.78,0L161,50.79V33ZM130.76,53.43h29.3a1,1,0,0,0,.95-.76L150.26,42l-3.36,2.82a2.41,2.41,0,0,1-3,0L140.54,42,129.81,52.67A1,1,0,0,0,130.76,53.43Z"/><path class="cls-1" d="M73.2,85.72,44.41,61.61a1.88,1.88,0,0,1,1.83-1.47H102.6a1.9,1.9,0,0,1,1.83,1.46L75.61,85.72a1.84,1.84,0,0,1-1.21.42A1.93,1.93,0,0,1,73.2,85.72ZM63.07,80.61,44.35,64.93V99.15Zm22.66,0,18.73,18.55V64.93Zm-39.5,23.61h56.36a1.88,1.88,0,0,0,1.83-1.47L83.75,82.27l-6.48,5.42a4.53,4.53,0,0,1-5.73,0l-6.49-5.42L44.4,102.74A1.87,1.87,0,0,0,46.23,104.22Z"/><path class="cls-2" d="M145.72,160.82,78.48,104.51a4.38,4.38,0,0,1,4.28-3.42H214.34a4.36,4.36,0,0,1,4.26,3.41l-67.25,56.33a4.34,4.34,0,0,1-2.82,1A4.44,4.44,0,0,1,145.72,160.82ZM122.07,148.9,78.36,112.29V192.2Zm52.93,0,43.73,43.32V112.28ZM82.76,204H214.34a4.39,4.39,0,0,0,4.27-3.43l-48.26-47.81-15.13,12.67a10.59,10.59,0,0,1-13.38,0l-15.13-12.67-48.23,47.8A4.38,4.38,0,0,0,82.76,204Z"/><path class="cls-3" d="M45.13,159.88,27.35,145a1.17,1.17,0,0,1,1.13-.91H63.27a1.16,1.16,0,0,1,1.13.9l-17.77,14.9a1.25,1.25,0,0,1-1.5,0Zm-6.25-3.16L27.33,147v21.12Zm14,0,11.57,11.46V147ZM28.48,171.29H63.27a1.16,1.16,0,0,0,1.13-.91L51.64,157.74l-4,3.35a2.72,2.72,0,0,1-1.77.63,2.76,2.76,0,0,1-1.77-.63l-4-3.35L27.35,170.38A1.15,1.15,0,0,0,28.48,171.29Z"/><path class="cls-3" d="M229.49,73.92,214.25,61.15a1,1,0,0,1,1-.78H245a1,1,0,0,1,1,.77L230.76,73.92a1,1,0,0,1-.64.22A1,1,0,0,1,229.49,73.92Zm-5.36-2.71-9.91-8.3V81Zm12,0L246,81V62.9Zm-20.91,12.5H245a1,1,0,0,0,1-.78L235.06,72.09,231.64,75a2.37,2.37,0,0,1-1.52.54,2.33,2.33,0,0,1-1.51-.54l-3.43-2.86L214.25,82.93A1,1,0,0,0,215.21,83.71Z"/></svg>