<svg id="Ebene_1" data-name="Ebene 1" xmlns="http://www.w3.org/2000/svg" width="300" height="300" viewBox="0 0 300 300"><defs><style>.cls-1{fill:#c3c2c2;}.cls-2{fill:#204698;}.cls-3{fill:#727272;}</style></defs><title>MMSGK-4027_Email02</title><path class="cls-1" d="M161.73,48.13V38.28h0l-11.51,11.5h9.87A1.65,1.65,0,0,0,161.73,48.13Z"/><path class="cls-1" d="M191.33,38.28H163.74v9.93a3.56,3.56,0,0,1-3.54,3.54h-10v37.7a3.19,3.19,0,0,0,3.18,3.18h37.94a3.19,3.19,0,0,0,3.17-3.18v-48a3.18,3.18,0,0,0-3.17-3.17ZM177.8,54a3.28,3.28,0,1,1-3.28,3.28A3.28,3.28,0,0,1,177.8,54Zm7.84,22.87H159.76l-.11,0c-.59-.25-.29-.92-.29-.92l1.13-2.77,5-12.43.7-1.74s.11-.33.22-.33.23.31.23.31l.68,1.76L172.1,72,177,67h0l.28-.27s.25-.33.51-.33h0a.69.69,0,0,1,.49.27l.28.32.73.84h0l5.5,6.31,1.34,1.51a.69.69,0,0,1-.46,1.19ZM49.05,132.15V121h0L36.75,134H47.28A1.83,1.83,0,0,0,49.05,132.15Z"/><path class="cls-1" d="M80.67,121H51.19v11.24a3.91,3.91,0,0,1-3.78,4H36.75v42.68a3.51,3.51,0,0,0,3.39,3.6H80.68a3.51,3.51,0,0,0,3.39-3.6V124.6A3.51,3.51,0,0,0,80.67,121Zm-10.8,17.74a1.19,1.19,0,0,1,2.37,0v2.37a1.19,1.19,0,1,1-2.37,0h0Zm-4.73-7.1a1.19,1.19,0,0,1,2.37,0v9.47a1.19,1.19,0,0,1-1.19,1.19,1.18,1.18,0,0,1-1.18-1.19Zm-3.55,36.68H45a1.17,1.17,0,0,1-1.19-1.18A1.19,1.19,0,0,1,45,166H61.59a1.19,1.19,0,1,1,0,2.37Zm14.2-7.09H45a1.19,1.19,0,0,1,0-2.38H75.79a1.19,1.19,0,0,1,0,2.38Zm0-7.1H45a1.19,1.19,0,0,1,0-2.38H75.79a1.19,1.19,0,1,1,0,2.38Zm1.18-13a1.19,1.19,0,1,1-2.37,0V134a1.19,1.19,0,0,1,1.19-1.19A1.18,1.18,0,0,1,77,134Z"/><path class="cls-2" d="M146.08,160.68,79.14,104.61a4.35,4.35,0,0,1,4.25-3.41h131a4.36,4.36,0,0,1,4.25,3.39l-67,56.09a4.53,4.53,0,0,1-5.6,0Zm-23.54-11.89L79,112.35V191.9l43.51-43.11Zm52.69,0,43.53,43.13V112.33ZM83.39,203.68h131a4.37,4.37,0,0,0,4.26-3.41l-48.05-47.6-15.06,12.61a10.54,10.54,0,0,1-13.32,0l-15.06-12.61-48,47.58a4.35,4.35,0,0,0,4.25,3.43Z"/><path class="cls-3" d="M251.61,215.48a26.08,26.08,0,0,1-52.15,0V166.4a2.59,2.59,0,0,1,2.59-2.59H205a2.59,2.59,0,0,1,2.59,2.59v49.08a18,18,0,0,0,36,0V158.89a10.66,10.66,0,0,0-21.31,0V214a3.19,3.19,0,0,0,6.38,0v-55.1s0,0,0-.06v-1.42a2.59,2.59,0,0,1,2.59-2.59h2.91a2.58,2.58,0,0,1,2.58,2.59v2.09h0V214a11.28,11.28,0,1,1-22.55,0v-55.1a18.74,18.74,0,0,1,37.47,0Z"/></svg>