<svg id="Ebene_1" data-name="Ebene 1" xmlns="http://www.w3.org/2000/svg" width="300" height="300" viewBox="0 0 300 300"><defs><style>.cls-1{fill:#204698;}.cls-2{fill:#c11633;fill-rule:evenodd;}.cls-3{fill:#fff;}</style></defs><title>MMSGK-4027_Email02</title><path class="cls-1" d="M145.89,161.7,78.5,105.21a4.4,4.4,0,0,1,4.29-3.42H214.67A4.37,4.37,0,0,1,219,105.2l-67.41,56.48a4.55,4.55,0,0,1-5.65,0Zm-23.69-12L78.38,113.06v80.07Zm53,0,43.82,43.43v-80.1Zm-92.43,55.2H214.67A4.38,4.38,0,0,0,219,201.5l-48.37-47.87-15.16,12.7a10.58,10.58,0,0,1-13.4,0l-15.19-12.7L78.5,201.54A4.4,4.4,0,0,0,82.79,205Z"/><path class="cls-2" d="M183.31,162.67h42.15a3.48,3.48,0,0,1,3.48,3.48h0v42a3.47,3.47,0,0,1-3.47,3.47H183.31a3.49,3.49,0,0,1-3.48-3.47v-42A3.48,3.48,0,0,1,183.31,162.67Z"/><path class="cls-3" d="M214.42,171.27v5c-5.37,7.55-8.44,17.58-9.54,26.72H198A56,56,0,0,1,208.09,177H194.43v-5.68Z"/></svg>