<svg id="Ebene_1" data-name="Ebene 1" xmlns="http://www.w3.org/2000/svg" width="220" height="220" viewBox="0 0 220 220"><defs><style>.cls-1{fill:#c3c2c2;}.cls-2{fill:#1c449b;}.cls-3{fill:#717171;}</style></defs><title>MMSGK_3191_gmx_freemail_sicherheit_kalender_spam_01_koto-01</title><polygon class="cls-1" points="73.48 55.43 88.25 70.03 88.25 41.7 73.48 55.43"/><path class="cls-1" d="M66.66,61.82a3.76,3.76,0,0,1-5.18,0L56.22,56.9,40.5,72.36a2.89,2.89,0,0,0,2.33,1.21H85.4a3.06,3.06,0,0,0,2.42-1.21L71.93,56.9Z"/><path class="cls-1" d="M63,60.27a1.73,1.73,0,0,0,2.33,0L87.56,39.55c.09-.09.17-.18.17-.26A3,3,0,0,0,85.31,38H42.83a2.85,2.85,0,0,0-2.41,1.3c.08.08.08.17.17.26Z"/><polygon class="cls-1" points="39.9 41.7 39.9 70.03 54.66 55.43 39.9 41.7"/><path class="cls-2" d="M113.92,45,58.39,77v64l55.45,32,55.46-32V77Zm-.15,107.33a8.17,8.17,0,1,1,0-16.33,8.17,8.17,0,0,1,0,16.33Zm8.09-78.09L119,122.47v1.47a4.46,4.46,0,0,1-.16,1.09h0a5.07,5.07,0,0,1-4.9,4h-.31a5,5,0,0,1-5-5.06v-1.47l-2.88-48.54h0v-.54a8,8,0,0,1,7.62-8.09h1.09A8,8,0,0,1,122,73.39C121.93,73.62,121.93,73.93,121.86,74.24Z"/><path class="cls-3" d="M180.09,187.76h-36.4a3,3,0,0,1-3-3v-37.3h42.4v37.3A3,3,0,0,1,180.09,187.76Zm-23-31.3h-3.2l-6.4,4,1.3,2.9,3.9-2.2v16.1h4.4Zm17.5,17.3H166l4.5-4.4c2.5-2.4,3.9-4.3,3.9-7.2,0-3.6-2.1-6-7-6a10.74,10.74,0,0,0-6.9,2.2l1.3,3a10.33,10.33,0,0,1,5.1-1.7c2,0,3,1,3,2.7s-.6,2.9-2.4,4.7l-6.7,6.7v3.3h13.6Zm2.1-41h-3.2V136a2.1,2.1,0,1,1-4.2,0v-3.2h-14.8V136a2.16,2.16,0,1,1-4.3.3v-3.5H147a6.38,6.38,0,0,0-6.4,6.4h0v4.2H183v-4.3a6.09,6.09,0,0,0-6.3-6.3Z"/></svg>