<svg id="Ebene_1" data-name="Ebene 1" xmlns="http://www.w3.org/2000/svg" width="300" height="300" viewBox="0 0 300 300"><defs><style>.cls-1{fill:#204698;}.cls-2{fill:#727272;}</style></defs><title>MMSGK-4027_Email02</title><path class="cls-1" d="M146,160.89,78.53,104.4A4.4,4.4,0,0,1,82.82,101h132a4.39,4.39,0,0,1,4.28,3.42l-67.45,56.5A4.58,4.58,0,0,1,146,160.89Zm-23.72-12L78.41,112.2v80.15Zm53.08,0,43.87,43.45V112.18ZM82.82,204.21h132a4.38,4.38,0,0,0,4.29-3.43l-48.41-47.94-15.14,12.71a10.64,10.64,0,0,1-13.46,0l-15.14-12.73L78.55,200.76A4.39,4.39,0,0,0,82.82,204.21Z"/><path class="cls-2" d="M232.61,185.57c7.95,0,15.9,0,23.86,0a3.86,3.86,0,0,1,2.3.75c1.15.92,1.14,2.6.12,4-2.38,3.35-4.8,6.68-7.21,10q-5.67,7.85-11.32,15.7a2.66,2.66,0,0,0-.4,1.4c0,4.57,0,9.13,0,13.7a4.6,4.6,0,0,1-1.23,3.34q-4.54,5-9,10a2.5,2.5,0,0,1-3,.94c-1.1-.43-1.59-1.41-1.59-3,0-8.21,0-16.42,0-24.63a3.87,3.87,0,0,0-.65-2.08q-8.92-12.45-17.93-24.85c-.22-.31-.45-.63-.65-1a2.8,2.8,0,0,1,1.69-4.29,10.83,10.83,0,0,1,1.89-.07Zm-19.52,7c.31.47.48.76.68,1,5,6.92,10,12.41,15,19.3a6.35,6.35,0,0,1,1.29,4c0,5.93,0,11.86,0,17.78,0,.38,0,.76.07,1.44,1.51-1.64,2.79-3.07,4.11-4.46a2.4,2.4,0,0,0,.69-1.83c0-4.45,0-8.91,0-13.36a5,5,0,0,1,1-3.14c5.09-7,10.16-12.57,15.23-19.58.25-.35.48-.72.82-1.22Z"/></svg>