<svg id="Ebene_1" xmlns="http://www.w3.org/2000/svg" width="168" height="48" viewBox="0 0 168 48"><style>.st0{fill:#a6a6a6}.st1{fill:#fff}.st2{fill:url(#SVGID_1_)}.st3{fill:url(#SVGID_2_)}.st4{fill:url(#SVGID_3_)}.st5{fill:url(#SVGID_4_)}.st6,.st7,.st8{opacity:.2;enable-background:new}.st7,.st8{opacity:.12}.st8{opacity:.25;fill:#fff}.st9{fill:#fff;stroke:#fff;stroke-width:.1502;stroke-miterlimit:10}</style><path d="M161.62 47.88H6.27c-3.43 0-6.27-2.76-6.27-6V6c0-3.36 2.84-6 6.27-6h155.47c3.43 0 6.27 2.76 6.27 6v36c-.13 3.24-2.97 5.88-6.39 5.88z"/><path class="st0" d="M161.62.96c2.84 0 5.2 2.28 5.2 5.04v36c0 2.76-2.36 5.04-5.2 5.04H6.27c-2.84 0-5.2-2.28-5.2-5.04V6c0-2.76 2.36-5.04 5.2-5.04h155.35m0-.96H6.27C2.84 0 0 2.76 0 6v36c0 3.36 2.84 6 6.27 6h155.47c3.43 0 6.27-2.76 6.27-6V6c-.13-3.24-2.97-6-6.39-6z"/><path class="st1" d="M88.38 26.04c-2.88 0-5.16 2.16-5.16 5.16s2.28 5.16 5.16 5.16c2.88 0 5.16-2.16 5.16-5.16s-2.4-5.16-5.16-5.16zm0 8.16c-1.56 0-2.88-1.32-2.88-3.12s1.32-3.12 2.88-3.12c1.56 0 2.76 1.44 2.76 3.24 0 1.8-1.32 3-2.76 3zM77.1 26.04c-2.88 0-5.16 2.16-5.16 5.16s2.28 5.16 5.16 5.16c2.88 0 5.16-2.16 5.16-5.16s-2.28-5.16-5.16-5.16zm0 8.16c-1.56 0-2.76-1.2-2.76-3s1.32-3.12 2.88-3.12c1.56 0 2.88 1.32 2.88 3.12s-1.44 3-3 3zm-13.2-6.6v2.16h5.16c-.12 1.2-.48 2.16-1.2 2.76-.72.72-1.92 1.56-3.96 1.56-3.12 0-5.76-2.52-5.76-5.76s2.52-5.76 5.76-5.76c1.68 0 3 .72 3.96 1.56l1.56-1.56c-1.32-1.2-3-2.16-5.4-2.16-4.32 0-8.04 3.48-8.04 7.92s3.72 7.92 8.04 7.92c2.28 0 4.08-.72 5.52-2.28 1.44-1.44 1.92-3.48 1.92-5.04 0-.48-.12-.96-.12-1.32H63.9zm54.24 1.68c-.48-1.08-1.68-3.24-4.32-3.24-2.64 0-4.8 2.16-4.8 5.16 0 2.88 2.16 5.16 5.04 5.16 2.28 0 3.72-1.44 4.32-2.28L116.7 33c-.6.84-1.32 1.44-2.52 1.44s-1.92-.48-2.52-1.56L118.5 30c0-.12-.36-.72-.36-.72zm-6.96 1.8c-.12-1.92 1.56-3 2.64-3 .96 0 1.68.48 1.92 1.08l-4.56 1.92zM105.66 36h2.28V21h-2.28v15zm-3.72-8.76c-.6-.6-1.56-1.08-2.76-1.08-2.52 0-4.92 2.28-4.92 5.16s2.28 5.16 4.92 5.16c1.2 0 2.16-.48 2.76-1.08v.72c0 1.92-1.08 3-2.76 3-1.32 0-2.28-.96-2.52-1.8l-1.92.6c.48 1.32 2.04 3 4.56 3 2.64 0 4.92-1.56 4.92-5.28V26.4h-2.16s0 .84-.12.84zm-2.52 6.96c-1.56 0-2.88-1.32-2.88-3.12s1.32-3.12 2.88-3.12 2.76 1.32 2.76 3.12-1.2 3.12-2.76 3.12zM128.7 21h-5.28v15h2.28v-5.76h3.12c2.52 0 4.92-1.8 4.92-4.68S131.1 21 128.7 21zm0 7.2h-3.12v-5.16h3.12c1.44 0 2.64 1.08 2.64 2.52 0 1.32-.96 2.64-2.64 2.64zm13.8-2.16c-1.68 0-3.36.72-3.96 2.28l1.92.84c.48-.84 1.2-1.08 2.04-1.08 1.08 0 2.28.72 2.28 1.92v.12c-.36-.24-1.32-.6-2.28-.6-2.16 0-4.32 1.2-4.32 3.36 0 2.04 1.68 3.36 3.72 3.36 1.56 0 2.28-.72 2.88-1.56h.12v1.08h2.16V30c0-2.4-1.92-3.96-4.56-3.96zm-.24 8.16c-.72 0-1.68-.36-1.68-1.32 0-1.08 1.32-1.56 2.4-1.56.96 0 1.44.24 2.04.48-.24 1.44-1.44 2.4-2.76 2.4zm12.72-7.8l-2.52 6.6h-.12l-2.64-6.6h-2.4l3.96 9.12-2.28 5.04h2.28l6.12-14.16h-2.4zM134.82 36h2.28V21h-2.28v15z"/><linearGradient id="SVGID_1_" gradientUnits="userSpaceOnUse" x1="25.547" y1="-348.565" x2="5.425" y2="-368.687" gradientTransform="matrix(1 0 0 -1 0 -338.112)"><stop offset="0" stop-color="#00a0ff"/><stop offset=".007" stop-color="#00a1ff"/><stop offset=".26" stop-color="#00beff"/><stop offset=".512" stop-color="#00d2ff"/><stop offset=".76" stop-color="#00dfff"/><stop offset="1" stop-color="#00e3ff"/></linearGradient><path class="st2" d="M11.94 9c-.36.36-.48.96-.48 1.68V37.2c0 .72.24 1.32.48 1.68l.12.12 14.88-15v-.36L11.94 9c.12-.12 0 0 0 0z"/><linearGradient id="SVGID_2_" gradientUnits="userSpaceOnUse" x1="39.966" y1="-362.172" x2="10.955" y2="-362.172" gradientTransform="matrix(1 0 0 -1 0 -338.112)"><stop offset="0" stop-color="#ffe000"/><stop offset=".409" stop-color="#ffbd00"/><stop offset=".775" stop-color="orange"/><stop offset="1" stop-color="#ff9c00"/></linearGradient><path class="st3" d="M31.74 29.16l-4.92-4.92v-.36l4.92-4.92.12.12 5.88 3.36c1.68.96 1.68 2.52 0 3.48l-6 3.24c.12-.12 0 0 0 0z"/><linearGradient id="SVGID_3_" gradientUnits="userSpaceOnUse" x1="29.177" y1="-364.855" x2="1.891" y2="-392.141" gradientTransform="matrix(1 0 0 -1 0 -338.112)"><stop offset="0" stop-color="#ff3a44"/><stop offset="1" stop-color="#c31162"/></linearGradient><path class="st4" d="M31.98 29.04L26.94 24l-15 14.88c.48.6 1.44.72 2.52.12l17.52-9.96"/><linearGradient id="SVGID_4_" gradientUnits="userSpaceOnUse" x1="8.169" y1="-338.303" x2="20.354" y2="-350.487" gradientTransform="matrix(1 0 0 -1 0 -338.112)"><stop offset="0" stop-color="#32a071"/><stop offset=".069" stop-color="#2da771"/><stop offset=".476" stop-color="#15cf74"/><stop offset=".801" stop-color="#06e775"/><stop offset="1" stop-color="#00f076"/></linearGradient><path class="st5" d="M31.98 18.96L14.46 8.88c-1.08-.6-2.04-.48-2.52.12l15 15 5.04-5.04z"/><path class="st6" d="M31.74 28.92l-17.4 9.96c-.96.48-1.92.48-2.4 0l.12.12c.48.48 1.44.48 2.4 0l17.52-9.96-.24-.12z"/><path class="st7" d="M11.94 38.76c-.36-.36-.48-.96-.48-1.68v.12c0 .72.24 1.32.48 1.68v-.12c.12.12 0 0 0 0zm25.8-13.2l-6 3.36.12.12 5.88-3.36c.84-.48 1.32-1.08 1.32-1.68-.12.6-.48 1.08-1.32 1.56z"/><path class="st8" d="M14.46 9.12l23.4 13.32c.72.48 1.2.96 1.32 1.56 0-.6-.48-1.32-1.32-1.68L14.46 8.88c-1.68-.96-3.12-.12-3.12 1.68v.24c0-1.8 1.32-2.64 3.12-1.68z"/><path class="st9" d="M58.26 15.72c-.48 0-.96-.12-1.32-.48-.36-.36-.6-.72-.72-1.2l.84-.36c.24.72.72 1.08 1.32 1.08.48 0 .72-.12.96-.48s.36-.72.36-1.08V8.28h.96v4.92c0 .72-.24 1.32-.72 1.8-.48.6-1.08.84-1.68.72zm7.92-6.36h-3.24v2.28h2.88v.96h-2.88v2.28h3.36v.72h-4.2V8.4h4.2l-.12.96c.12 0 0 0 0 0zm3.96 6.24h-.96V9.36h-2.04V8.4h4.92v.96h-2.04c.12 0 .12 6.24.12 6.24zm2.76 0v-.96l3.84-5.28h-3.72V8.4h4.68v.96l-3.84 5.28h3.84v.96h-4.8zm8.64 0h-.96V9.36h-2.04V8.4h4.92v.96h-1.92v6.24zm5.64 0V8.4h2.64c.48 0 1.08.12 1.44.48.36.36.6.84.6 1.44 0 .36-.12.72-.36.96-.12.24-.48.48-.72.6V12c.36.12.72.36.96.6s.36.6.36 1.08c0 .6-.24 1.08-.72 1.56-.48.36-.96.6-1.56.6l-2.64-.24c0 .12 0 0 0 0zm.96-4.08h1.68c.36 0 .6-.12.84-.36s.36-.48.36-.72-.24-.6-.48-.84-.48-.36-.84-.36h-1.68l.12 2.28c-.12 0 0 0 0 0zm0 3.24h1.8c.36 0 .72-.12.96-.36s.36-.48.36-.84-.12-.6-.36-.84-.48-.36-.96-.36h-1.8v2.4zm9.48-5.4h-3.36v2.28h2.88v.96h-2.88v2.28h3.36v.72h-4.2V8.4h4.2v.96zm1.44 6.24V8.4h.96v7.2h-.96z"/></svg>