<svg id="Ebene_1" xmlns="http://www.w3.org/2000/svg" width="168" height="48" viewBox="0 0 168 48"><style>.st0{fill:#d2d2d2}.st1{fill:#fff}.st2{fill:#7eb900}.st3{fill:#f15021}.st4{fill:#00a3ee}.st5{fill:#ffb800}</style><path class="st0" d="M0 0h168l-.2 48H0V0z"/><path d="M.6.6h166.8v46.8H.6V.6z"/><path class="st1" d="M65.2 33.4l-.8 2.5c-.1-.6-.4-1.3-.8-2.5l-4.8-11.8h-4.6v18.7h3V26.2c0-.5 0-.8-.1-1.2.1.7.2 1.2.4 1.6L63 40.2h2.2l5.6-13.8c.1-.4.2-1 .4-1.4 0 1.3-.1 2.6-.1 3.4v11.9h3.2V21.6h-4.7c.4 0-4.4 11.8-4.4 11.8zm36.8-6.6c-.7 0-1.4.2-2.2.7-.5.5-.8 1.1-1.2 1.8v-2.4h-3.1v13.4h3.1v-7c0-1.1.2-2.2.7-2.9s1.2-1.1 2-1.1c.2 0 .6.1 1 .1.4.1.6.2.7.4l.1.1v-3.1H102zm-10.3 0c-.6-.1-1.2-.2-1.7-.2-1.3 0-2.8.4-3.8 1s-2 1.4-2.5 2.6c-.6 1.1-.8 2.4-.8 3.7 0 1.2.2 2.5.8 3.5.5 1 1.3 1.8 2.4 2.5 1 .6 2.2.8 3.5.8 1.4 0 2.8-.4 3.8-.8v-3l-.2.1c-.5.4-1 .6-1.4.7-.5.2-1.1.2-1.4.2-1.2 0-2.3-.4-3-1.1s-1.1-1.8-1.1-3.2c0-1.3.4-2.5 1.1-3.4.7-.7 1.7-1.2 3-1.2 1 0 2 .4 3 1l.1.1V27c-.6.1-1.1-.1-1.8-.2zm-12.6-5.7c-.5 0-1 .2-1.3.5s-.5.7-.5 1.3c0 .5.2 1 .5 1.2s.7.5 1.3.5 1-.2 1.3-.5c.4-.4.5-.7.5-1.2s-.2-1-.5-1.3c-.4-.2-.8-.5-1.3-.5zm-1.7 19.2h3.1V26.9h-3.1v13.4zm58.8-13.7c-2.3 0-4 .6-5.2 1.9-1.2 1.2-1.9 3.1-1.9 5.3s.6 3.8 1.9 5c1.2 1.2 2.9 1.8 4.9 1.8s3.8-.6 5-1.9 1.9-3.1 1.9-5.2c0-2.2-.6-3.8-1.7-5-1.2-1.3-3-1.9-4.9-1.9zm2.4 10.4c-.6.7-1.4 1.1-2.6 1.1-1.1 0-2-.4-2.8-1.1-.6-.7-1-1.8-1-3.2s.4-2.5 1-3.4c.6-.7 1.6-1.1 2.8-1.1 1.1 0 2 .4 2.6 1.1s1 1.8 1 3.4c-.2 1.2-.4 2.4-1 3.2zm-14.4-4.5c-1-.4-1.6-.7-1.9-1-.2-.2-.4-.6-.4-1s.1-.7.5-1 .7-.4 1.3-.4c.5 0 1.1.1 1.6.2s1 .4 1.3.6l.1.1v-3c-.4-.1-.8-.2-1.3-.4-.6-.1-1.1-.1-1.6-.1-1.4 0-2.8.4-3.7 1.1s-1.3 1.7-1.3 3c0 .6.1 1.2.2 1.6.2.5.5.8 1 1.2.4.4 1.1.7 2 1.1.7.4 1.2.6 1.6.7.4.2.5.4.7.6.1.2.2.5.2.7 0 .8-.6 1.3-2 1.3-.5 0-1.1-.1-1.7-.4s-1.2-.5-1.7-.8l-.1-.1v3.1c.5.2 1 .4 1.7.5.6.1 1.2.2 1.9.2 1.6 0 3-.4 3.8-1.1 1-.7 1.4-1.7 1.4-3.1 0-.8-.2-1.7-.7-2.4-.7-.1-1.6-.7-2.9-1.2zm-13.6-5.9c-2.3 0-4 .6-5.2 1.9-1.2 1.2-1.9 3.1-1.9 5.3s.6 3.8 1.9 5c1.2 1.2 2.9 1.8 4.9 1.8s3.8-.6 5-1.9 1.9-3.1 1.9-5.2c0-2.2-.6-3.8-1.7-5-1.1-1.3-2.8-1.9-4.9-1.9zM113 37c-.6.7-1.4 1.1-2.6 1.1-1.1 0-2-.4-2.8-1.1-.6-.7-1-1.8-1-3.2s.4-2.5 1-3.4c.6-.7 1.6-1.1 2.8-1.1 1.1 0 2 .4 2.6 1.1s1 1.8 1 3.4c-.1 1.2-.4 2.4-1 3.2zm46.5-7.6v-2.6h-3.2v-4h-.1l-3 .8v3.1h-4.7V25c0-.7.2-1.3.5-1.7.4-.4.8-.6 1.4-.6.4 0 .8.1 1.3.4l.1.1v-2.8c-.4-.1-1-.2-1.7-.2-1 0-1.7.2-2.5.6-.7.4-1.3 1-1.7 1.7s-.6 1.6-.6 2.5v1.8H143v2.6h2.3v10.9h3.2V29.5h4.7v7c0 2.9 1.3 4.3 4 4.3.4 0 .8-.1 1.3-.1.5-.1.7-.2 1-.4v-2.6l-.1.1c-.2.1-.4.2-.6.2-.2.1-.5.1-.6.1-.6 0-1.1-.1-1.3-.5s-.4-.8-.4-1.7v-6.4l3-.1z"/><path class="st2" d="M30 6h16.8v16.8H30V6z"/><path class="st3" d="M10.8 6h16.8v16.8H10.8V6z"/><path class="st4" d="M10.8 25.2h16.8V42H10.8V25.2z"/><path class="st5" d="M30 25.2h16.8V42H30V25.2z"/><path class="st1" d="M60.9 16.4c-.3.2-.7.3-1.1.4s-.9.1-1.4.1c-.9 0-1.6-.2-2.3-.6s-1.2-.9-1.5-1.6c-.4-.7-.6-1.4-.6-2.4 0-.9.2-1.8.6-2.6.4-.7 1-1.3 1.7-1.7s1.5-.6 2.4-.6 1.6.1 2.2.4v1.3c-.7-.4-1.4-.6-2.2-.6-.7 0-1.2.2-1.8.5-.5.3-.9.7-1.2 1.3s-.4 1.2-.4 1.9c0 1.1.3 1.9.9 2.6.6.6 1.3 1 2.3 1 .9 0 1.7-.2 2.4-.6v1.2zM68.6 13.4c0 1.1-.3 1.9-.9 2.5s-1.4.9-2.4.9-1.8-.3-2.4-.9c-.6-.6-.9-1.4-.9-2.4 0-1.1.3-2 .9-2.6.6-.6 1.4-.9 2.5-.9 1 0 1.8.3 2.3.9.7.6.9 1.5.9 2.5zm-1.3.1c0-.8-.2-1.4-.5-1.8s-.8-.6-1.4-.6-1.1.2-1.5.6c-.4.4-.5 1-.5 1.8 0 .7.2 1.3.5 1.7.4.4.9.6 1.5.6s1.1-.2 1.5-.6c.3-.3.4-.9.4-1.7zM75.7 16.8h-1.3v-3.7c0-.7-.1-1.2-.3-1.5-.2-.3-.6-.5-1.1-.5s-.9.2-1.2.5c-.3.4-.5.8-.5 1.4v3.7H70v-6.6h1.3v1.1c.5-.8 1.2-1.2 2.1-1.2.7 0 1.3.2 1.6.7.4.5.6 1.1.6 2v4.1h.1zM81.3 15c0 .6-.2 1.1-.7 1.4-.4.3-1.1.5-1.8.5-.3 0-.6 0-.9-.1s-.6-.2-.8-.3v-1.3c.5.4 1.1.6 1.7.6.3 0 .6-.1.8-.2.2-.1.3-.3.3-.6 0-.2 0-.3-.1-.4l-.3-.3c-.1-.1-.4-.2-.9-.5-.5-.2-.9-.5-1.2-.8s-.4-.7-.4-1.2c0-.6.2-1 .7-1.4.4-.4 1-.5 1.7-.5.6 0 1.1.1 1.5.3v1.2c-.4-.3-.9-.5-1.5-.5-.3 0-.6.1-.8.2-.2.1-.3.3-.3.6s.1.5.3.6.5.3.9.5c.6.3 1.1.6 1.3.9.4.5.5.8.5 1.3zM85.1 6.9L83.4 9h-1l1.5-2.1h1.2zM84 16.8h-1.3v-6.6H84v6.6zM91.7 16.2c0 1.2-.3 2.1-.9 2.7s-1.5.9-2.7.9c-.8 0-1.5-.1-2.1-.4v-1.2c.7.4 1.4.6 2.1.6.8 0 1.4-.2 1.7-.6.4-.4.6-1 .6-1.8v-.7c-.2.4-.5.7-.9.9s-.8.3-1.3.3c-.8 0-1.5-.3-2-.9s-.8-1.4-.8-2.3c0-1.1.3-2 .8-2.7s1.3-1 2.2-1c.9 0 1.5.3 1.9 1v-.9h1.3l.1 6.1zm-1.3-3.3c0-.5-.2-.9-.5-1.3-.3-.3-.7-.5-1.2-.5-.6 0-1.1.2-1.4.7-.3.4-.5 1.1-.5 1.9 0 .7.2 1.2.5 1.6.3.4.8.6 1.3.6s1-.2 1.3-.6c.3-.4.5-.9.5-1.5v-.9zM99.1 16.8h-1.3v-1c-.4.8-1.1 1.2-2 1.2-1.6 0-2.4-.9-2.4-2.8v-4h1.3V14c0 1.3.5 1.9 1.5 1.9.5 0 .9-.2 1.2-.5.3-.3.5-.8.5-1.4v-3.8h1.3l-.1 6.6zM106.5 13.8h-4.6c0 .7.2 1.2.6 1.5.4.4.8.5 1.4.5.8 0 1.5-.2 2.1-.7v1.1c-.3.2-.6.3-1 .4s-.8.2-1.2.2c-1 0-1.8-.3-2.3-.9s-.8-1.4-.8-2.5c0-.7.1-1.3.4-1.8s.6-.9 1.1-1.2 1-.5 1.6-.5c.9 0 1.5.3 2 .8.5.6.7 1.3.7 2.3v.8zm-1.3-1c0-.6-.1-1-.4-1.3s-.6-.5-1.1-.5c-.4 0-.8.2-1.1.5-.3.3-.5.7-.6 1.3h3.2zM109.1 16.8h-1.3V7h1.3v9.8zM117.2 13.4c0 1.1-.3 1.9-.9 2.5s-1.4.9-2.4.9-1.8-.3-2.4-.9-.9-1.4-.9-2.4c0-1.1.3-2 .9-2.6s1.4-.9 2.5-.9c1 0 1.8.3 2.3.9.6.6.9 1.5.9 2.5zm-1.3.1c0-.8-.2-1.4-.5-1.8s-.8-.6-1.4-.6-1.1.2-1.5.6c-.4.4-.5 1-.5 1.8 0 .7.2 1.3.5 1.7.4.4.9.6 1.5.6s1.1-.2 1.5-.6c.2-.3.4-.9.4-1.7z"/><g><path class="st1" d="M128 6.7v8.2c0 .6 0 1.3.1 1.8H127l-.1-1.2c-.4.8-1.2 1.3-2.3 1.3-1.6 0-2.9-1.4-2.9-3.5 0-2.3 1.4-3.7 3-3.7 1 0 1.7.5 2 1V6.7h1.3zm-1.2 6c0-.2 0-.4-.1-.5-.2-.8-.9-1.4-1.8-1.4-1.3 0-2 1.1-2 2.6 0 1.4.7 2.5 2 2.5.8 0 1.6-.5 1.8-1.5 0-.2.1-.3.1-.5v-1.2zM130.8 13.5c0 1.7 1.1 2.4 2.3 2.4.9 0 1.4-.2 1.9-.4l.2.9c-.4.2-1.2.4-2.3.4-2.1 0-3.3-1.4-3.3-3.4s1.2-3.7 3.2-3.7c2.2 0 2.8 2 2.8 3.2v.6h-4.8zm3.6-.9c0-.8-.3-2-1.7-2-1.2 0-1.8 1.2-1.9 2h3.6z"/></g></svg>