<svg id="Ebene_1" xmlns="http://www.w3.org/2000/svg" width="168" height="48" viewBox="0 0 168 48"><style>.st0{fill:#a6a6a6}.st1{fill:#fff}.st2{fill:url(#SVGID_1_)}.st3{fill:url(#SVGID_2_)}.st4{fill:url(#SVGID_3_)}.st5{fill:url(#SVGID_4_)}.st6,.st7,.st8{opacity:.2;enable-background:new}.st7,.st8{opacity:.12}.st8{opacity:.25;fill:#fff}.st9{fill:#fff;stroke:#fff;stroke-width:.1502;stroke-miterlimit:10}</style><path d="M161.6 47.9H6.3c-3.4 0-6.3-2.8-6.3-6V6c0-3.4 2.8-6 6.3-6h155.5c3.4 0 6.3 2.8 6.3 6v36c-.2 3.2-3.1 5.9-6.5 5.9z"/><path class="st0" d="M161.6 1c2.8 0 5.2 2.3 5.2 5v36c0 2.8-2.4 5-5.2 5H6.3c-2.8 0-5.2-2.3-5.2-5V6c0-2.8 2.4-5 5.2-5h155.3m0-1H6.3C2.8 0 0 2.8 0 6v36c0 3.4 2.8 6 6.3 6h155.5c3.4 0 6.3-2.8 6.3-6V6c-.2-3.2-3.1-6-6.5-6z"/><path class="st1" d="M88.4 26c-2.9 0-5.2 2.2-5.2 5.2s2.3 5.2 5.2 5.2c2.9 0 5.2-2.2 5.2-5.2S91.1 26 88.4 26zm0 8.2c-1.6 0-2.9-1.3-2.9-3.1s1.3-3.1 2.9-3.1 2.8 1.4 2.8 3.2c-.1 1.8-1.4 3-2.8 3zM77.1 26c-2.9 0-5.2 2.2-5.2 5.2s2.3 5.2 5.2 5.2c2.9 0 5.2-2.2 5.2-5.2S80 26 77.1 26zm0 8.2c-1.6 0-2.8-1.2-2.8-3s1.3-3.1 2.9-3.1 2.9 1.3 2.9 3.1-1.4 3-3 3zm-13.2-6.6v2.2h5.2c-.1 1.2-.5 2.2-1.2 2.8-.7.7-1.9 1.6-4 1.6-3.1 0-5.8-2.5-5.8-5.8s2.5-5.8 5.8-5.8c1.7 0 3 .7 4 1.6l1.6-1.6c-1.3-1.2-3-2.2-5.4-2.2-4.3 0-8 3.5-8 7.9s3.7 7.9 8 7.9c2.3 0 4.1-.7 5.5-2.3 1.4-1.4 1.9-3.5 1.9-5 0-.5-.1-1-.1-1.3h-7.5zm54.2 1.7c-.5-1.1-1.7-3.2-4.3-3.2s-4.8 2.2-4.8 5.2c0 2.9 2.2 5.2 5 5.2 2.3 0 3.7-1.4 4.3-2.3l-1.7-1.1c-.6.8-1.3 1.4-2.5 1.4s-1.9-.5-2.5-1.6l6.8-2.9c.1-.1-.3-.7-.3-.7zm-6.9 1.8c-.1-1.9 1.6-3 2.6-3s1.7.5 1.9 1.1l-4.5 1.9zm-5.5 4.9h2.3V21h-2.3v15zm-3.8-8.8c-.6-.6-1.6-1.1-2.8-1.1-2.5 0-4.9 2.3-4.9 5.2s2.3 5.2 4.9 5.2c1.2 0 2.2-.5 2.8-1.1v.7c0 1.9-1.1 3-2.8 3-1.3 0-2.3-1-2.5-1.8l-1.9.6c.5 1.3 2 3 4.6 3s4.9-1.6 4.9-5.3v-9.2H102c.1 0 .1.8-.1.8zm-2.5 7c-1.6 0-2.9-1.3-2.9-3.1s1.3-3.1 2.9-3.1 2.8 1.3 2.8 3.1-1.2 3.1-2.8 3.1zM128.7 21h-5.3v15h2.3v-5.8h3.1c2.5 0 4.9-1.8 4.9-4.7s-2.6-4.5-5-4.5zm0 7.2h-3.1V23h3.1c1.4 0 2.6 1.1 2.6 2.5s-.9 2.7-2.6 2.7zm13.8-2.2c-1.7 0-3.4.7-4 2.3l1.9.8c.5-.8 1.2-1.1 2-1.1 1.1 0 2.3.7 2.3 1.9v.1c-.4-.2-1.3-.6-2.3-.6-2.2 0-4.3 1.2-4.3 3.4 0 2 1.7 3.4 3.7 3.4 1.6 0 2.3-.7 2.9-1.6h.1v1.1h2.2V30c.1-2.4-1.9-4-4.5-4zm-.2 8.2c-.7 0-1.7-.4-1.7-1.3 0-1.1 1.3-1.6 2.4-1.6 1 0 1.4.2 2 .5-.2 1.4-1.4 2.4-2.7 2.4zm12.7-7.8l-2.5 6.6h-.1l-2.6-6.6h-2.4l4 9.1-2.3 5h2.3l6.1-14.2H155v.1zM134.8 36h2.3V21h-2.3v15z"/><linearGradient id="SVGID_1_" gradientUnits="userSpaceOnUse" x1="25.522" y1="6004.19" x2="5.4" y2="6024.312" gradientTransform="translate(0 -5993.762)"><stop offset="0" stop-color="#00a0ff"/><stop offset=".007" stop-color="#00a1ff"/><stop offset=".26" stop-color="#00beff"/><stop offset=".512" stop-color="#00d2ff"/><stop offset=".76" stop-color="#00dfff"/><stop offset="1" stop-color="#00e3ff"/></linearGradient><path class="st2" d="M11.9 9c-.4.4-.5 1-.5 1.7v26.5c0 .7.2 1.3.5 1.7l.1.1 14.9-15v-.4L11.9 9c.2-.1 0 0 0 0z"/><linearGradient id="SVGID_2_" gradientUnits="userSpaceOnUse" x1="39.966" y1="6017.862" x2="10.955" y2="6017.862" gradientTransform="translate(0 -5993.762)"><stop offset="0" stop-color="#ffe000"/><stop offset=".409" stop-color="#ffbd00"/><stop offset=".775" stop-color="orange"/><stop offset="1" stop-color="#ff9c00"/></linearGradient><path class="st3" d="M31.7 29.2l-4.9-4.9v-.4l4.9-4.9.1.1 5.9 3.4c1.7 1 1.7 2.5 0 3.5l-6 3.2c.2-.2 0 0 0 0z"/><linearGradient id="SVGID_3_" gradientUnits="userSpaceOnUse" x1="29.192" y1="6020.52" x2="1.906" y2="6047.806" gradientTransform="translate(0 -5993.762)"><stop offset="0" stop-color="#ff3a44"/><stop offset="1" stop-color="#c31162"/></linearGradient><path class="st4" d="M32 29l-5-5-15 14.9c.5.6 1.4.7 2.5.1L32 29"/><linearGradient id="SVGID_4_" gradientUnits="userSpaceOnUse" x1="8.179" y1="5993.943" x2="20.364" y2="6006.127" gradientTransform="translate(0 -5993.762)"><stop offset="0" stop-color="#32a071"/><stop offset=".069" stop-color="#2da771"/><stop offset=".476" stop-color="#15cf74"/><stop offset=".801" stop-color="#06e775"/><stop offset="1" stop-color="#00f076"/></linearGradient><path class="st5" d="M32 19L14.5 8.9c-1.1-.6-2-.5-2.5.1l15 15 5-5z"/><path class="st6" d="M31.7 28.9l-17.4 10c-1 .5-1.9.5-2.4 0l.1.1c.5.5 1.4.5 2.4 0L32 29l-.3-.1z"/><path class="st7" d="M11.9 38.8c-.4-.4-.5-1-.5-1.7v.1c0 .7.2 1.3.5 1.6.2.1 0 0 0 0zm25.8-13.2l-6 3.4.1.1 5.9-3.4c.8-.5 1.3-1.1 1.3-1.7-.1.6-.4 1.1-1.3 1.6z"/><path class="st8" d="M14.5 9.1l23.4 13.3c.7.5 1.2 1 1.3 1.6 0-.6-.5-1.3-1.3-1.7L14.5 8.9c-1.7-1-3.1-.1-3.1 1.7v.2c-.1-1.8 1.3-2.6 3.1-1.7z"/><path class="st9" d="M57 15.7V8.4h2.2c1.1 0 2 .3 2.7 1s1 1.6 1 2.6c0 1.1-.3 2-1 2.6-.7.7-1.6 1-2.7 1l-2.2.1zm1-.9h1.3c.8 0 1.5-.2 2-.7s.7-1.2.7-2c0-.9-.2-1.5-.7-2s-1.2-.7-2-.7H58v5.4zM64.3 15.7V8.4h.9v7.3h-.9zM68.9 15.8c-.5 0-1-.2-1.6-.5-.5-.3-.8-.8-1-1.5l.9-.3c.1.4.3.7.6 1 .3.3.7.4 1.1.4s.8-.1 1-.3c.3-.2.4-.5.4-.9s-.1-.7-.4-.9-.7-.4-1.4-.6c-.6-.2-1.1-.5-1.5-.8-.3-.3-.5-.7-.5-1.2s.2-1 .6-1.4 1-.6 1.6-.6 1.1.2 1.5.5.6.6.8 1l-.7.3c-.1-.2-.2-.4-.5-.6-.2-.2-.6-.3-.9-.3-.4 0-.7.1-.9.3-.3.2-.4.4-.4.7s.1.5.4.7c.2.2.6.4 1 .5s.7.2.9.3c.2.1.5.3.7.4.2.2.4.4.6.7.1.3.2.6.2.9 0 .4-.1.7-.2.9-.1.3-.3.5-.6.7-.2.2-.5.3-.8.4-.3.2-.6.2-.9.2zM73.6 15.7h-.9V8.4h2.5c.6 0 1.2.2 1.6.6.5.4.7.9.7 1.6 0 .6-.2 1.1-.7 1.6-.5.4-1 .6-1.6.6h-1.5l-.1 2.9zm0-3.9h1.6c.4 0 .7-.1.9-.4.2-.3.4-.6.4-.9s-.1-.6-.4-.9c-.2-.3-.6-.4-.9-.4h-1.6v2.6zM84.6 14.7c-.7.7-1.6 1.1-2.7 1.1s-2-.4-2.7-1.1c-.7-.7-1.1-1.6-1.1-2.7s.4-2 1.1-2.7 1.6-1.1 2.7-1.1 1.9.4 2.7 1.1c.7.7 1.1 1.6 1.1 2.7s-.4 2-1.1 2.7zm-4.6-.6c.5.5 1.2.8 2 .8s1.4-.3 2-.8c.5-.5.8-1.2.8-2.1 0-.8-.3-1.5-.8-2.1-.5-.5-1.2-.8-2-.8s-1.4.3-2 .8c-.5.5-.8 1.2-.8 2.1 0 .9.2 1.6.8 2.1zM87 15.7V8.4h1.1l3.5 5.7V8.4h.9v7.3h-1l-3.7-5.9v5.9H87zM94.3 15.7V8.4h.9v7.3h-.9zM96.9 15.7V8.4h2.6c.6 0 1.1.2 1.5.6.4.4.6.9.6 1.4 0 .3-.1.7-.3.9-.2.3-.4.5-.7.6.4.1.7.3.9.6.2.3.3.6.3 1 0 .6-.2 1.1-.7 1.5-.4.4-1 .6-1.6.6l-2.6.1zm.9-4.2h1.7c.4 0 .6-.1.9-.4.2-.2.3-.5.3-.8s-.1-.5-.3-.8c-.2-.2-.5-.3-.8-.3h-1.7l-.1 2.3zm0 3.3h1.9c.4 0 .7-.1.9-.4.2-.3.3-.5.3-.8s-.1-.6-.3-.8c-.2-.2-.5-.4-.9-.4h-1.8l-.1 2.4zM103.2 15.7V8.4h.9v6.4h3.2v.9h-4.1zM112.7 9.3h-3.3v2.3h3v.9h-3v2.3h3.3v.9h-4.3V8.4h4.3v.9zM120.9 9.3h-3.3v2.3h3v.9h-3v2.3h3.3v.9h-4.3V8.4h4.3v.9zM122.3 15.7V8.4h1.1L127 14V8.4h.9v7.3h-1l-3.7-5.9v5.9h-.9z"/></svg>