<?xml version="1.0" encoding="utf-8"?>
<!-- Generator: Adobe Illustrator 23.0.3, SVG Export Plug-In . SVG Version: 6.00 Build 0)  -->
<svg version="1.1" id="livetype" xmlns="http://www.w3.org/2000/svg" xmlns:xlink="http://www.w3.org/1999/xlink" x="0px" y="0px"
	 viewBox="0 0 168 48" style="enable-background:new 0 0 168 48;" xml:space="preserve" width="168" height="48">
<style type="text/css">
	.st0{fill:#A6A6A6;}
	.st1{fill:#FFFFFF;}
</style>
<g>
	<path class="st0" d="M159,48H9c-4.9706,0-9-4.0294-9-9V9c0-4.9706,4.0294-9,9-9h150c4.9706,0,9,4.0294,9,9v30
		C168,43.9706,163.9706,48,159,48z"/>
	<path d="M158,47H10c-4.9706,0-9-3.0294-9-8V9c0-4.9706,4.0294-8,9-8h148c4.9706,0,9,3.0294,9,8v30C167,43.9706,162.9706,47,158,47z
		"/>
</g>
<g id="_Group_2_1_">
	<g id="_Group_3_1_">
		<path id="_Path__1_" class="st1" d="M35.8,24.5c0-2,1.1-3.9,2.8-5c-1.1-1.6-2.9-2.5-4.8-2.6c-2-0.2-4,1.2-5,1.2s-2.6-1.2-4.3-1.1
			c-2.2,0.1-4.3,1.3-5.4,3.3c-2.3,4-0.6,9.9,1.6,13.2c1.1,1.6,2.4,3.4,4.1,3.3c1.7-0.1,2.3-1.1,4.3-1.1s2.6,1.1,4.3,1
			c1.8,0,2.9-1.6,4-3.2c0.8-1.1,1.4-2.4,1.8-3.7C37.2,28.8,35.8,26.8,35.8,24.5z"/>
		<path id="_Path_2_1_" class="st1" d="M32.5,14.8c1-1.2,1.5-2.7,1.3-4.2c-1.5,0.2-2.9,0.9-3.8,2c-1,1.1-1.5,2.6-1.4,4
			C30.2,16.6,31.6,15.9,32.5,14.8z"/>
	</g>
</g>
<g>
	<path class="st1" d="M57.2,14.2c0-2.3,1.2-3.8,3.2-3.8c1.5-0.1,2.8,1,3,2.5h-1.1c-0.2-0.9-1-1.5-1.9-1.4c-1.3,0-2.1,1-2.1,2.7
		s0.8,2.7,2.1,2.7c0.9,0.1,1.6-0.5,1.9-1.3h1.1c-0.2,1.4-1.5,2.5-3,2.4C58.5,17.9,57.2,16.5,57.2,14.2z"/>
	<path class="st1" d="M64.6,15c-0.1-1.4,0.9-2.7,2.3-2.8s2.7,0.9,2.8,2.3c0,0.2,0,0.3,0,0.5c0.1,1.4-0.9,2.7-2.3,2.8
		c-1.4,0.1-2.7-0.9-2.8-2.3C64.6,15.4,64.6,15.2,64.6,15z M68.6,15c0-1.2-0.5-1.9-1.4-1.9s-1.4,0.7-1.4,1.9s0.5,1.9,1.4,1.9
		S68.6,16.2,68.6,15z"/>
	<path class="st1" d="M71.2,12.3h1v0.9h0.1c0.3-0.6,0.9-1,1.6-1c1-0.1,1.8,0.7,1.9,1.6c0,0.1,0,0.3,0,0.4v3.5h-1.1v-3.2
		c0-0.9-0.4-1.3-1.2-1.3c-0.7,0-1.3,0.5-1.3,1.2c0,0.1,0,0.1,0,0.2v3.2h-1.1L71.2,12.3z"/>
	<path class="st1" d="M79.4,12.2c1.2,0,2,0.6,2.1,1.5h-1c-0.1-0.4-0.5-0.6-1.1-0.6s-1,0.3-1,0.7c0,0.3,0.3,0.5,0.9,0.7l0.9,0.2
		c1,0.2,1.5,0.7,1.5,1.5c0,1-0.9,1.7-2.2,1.7s-2.1-0.6-2.2-1.5h1.1c0.2,0.5,0.7,0.7,1.2,0.7c0.7,0,1.1-0.3,1.1-0.7
		c0-0.3-0.3-0.5-0.8-0.7L79,15.5c-1-0.2-1.5-0.7-1.5-1.5C77.3,12.9,78.2,12.2,79.4,12.2z"/>
	<path class="st1" d="M82.9,11.4l1.2-1.7h1.3L84,11.4H82.9z M83,12.3h1.1v5.4H83V12.3z"/>
	<path class="st1" d="M85.8,18.3h1.1c0.1,0.4,0.5,0.6,1.3,0.6c0.9,0,1.4-0.4,1.4-1.1v-1h-0.1c-0.3,0.6-1,0.9-1.7,0.9
		c-1.4,0-2.2-1.1-2.2-2.7s0.9-2.7,2.2-2.7c0.7,0,1.4,0.3,1.7,1h0.1v-0.9h1v5.4c0,1.2-1,2-2.5,2C86.8,19.8,85.9,19.2,85.8,18.3z
		 M89.6,15c0-1.1-0.6-1.8-1.5-1.8s-1.4,0.7-1.4,1.8s0.5,1.8,1.4,1.8C89,16.7,89.6,16.1,89.6,15z"/>
	<path class="st1" d="M96.9,17.7h-1v-0.9h-0.2c-0.3,0.6-0.9,1-1.6,1c-1,0.1-1.8-0.7-1.9-1.6c0-0.1,0-0.2,0-0.4v-3.5h1.1v3.2
		c0,0.9,0.4,1.3,1.1,1.3c0.7,0.1,1.3-0.4,1.3-1.1c0-0.1,0-0.2,0-0.3v-3.2h1.1L96.9,17.7z"/>
	<path class="st1" d="M103.1,16.3c-0.3,1-1.3,1.7-2.3,1.6c-1.4,0-2.5-1-2.5-2.4c0-0.1,0-0.3,0-0.4c-0.2-1.4,0.8-2.6,2.1-2.8
		c0.1,0,0.2,0,0.4,0c1.5,0,2.4,1,2.4,2.7v0.4h-3.8v0.1c-0.1,0.8,0.5,1.5,1.3,1.5h0.1c0.5,0.1,1-0.2,1.3-0.7H103.1z M99.4,14.5h2.7
		c0.1-0.7-0.5-1.3-1.2-1.4h-0.1C100,13.1,99.4,13.7,99.4,14.5L99.4,14.5z"/>
	<path class="st1" d="M104.7,10.2h1v7.5h-1V10.2z"/>
	<path class="st1" d="M107.2,15c-0.1-1.4,0.9-2.7,2.3-2.8s2.7,0.9,2.8,2.3c0,0.2,0,0.3,0,0.5c0.1,1.4-0.9,2.7-2.3,2.8
		c-1.4,0.1-2.7-0.9-2.8-2.3C107.2,15.4,107.2,15.2,107.2,15z M111.2,15c0-1.2-0.5-1.9-1.4-1.9s-1.4,0.7-1.4,1.9s0.5,1.9,1.4,1.9
		S111.2,16.2,111.2,15z"/>
	<g>
		<g>
			<path class="st1" d="M65.5,32.7h-5.7l-1.4,4H56l5.4-14.9h2.5l5.4,14.9h-2.4L65.5,32.7z M60.4,30.8h4.5l-2.2-6.5h-0.1L60.4,30.8z"
				/>
			<path class="st1" d="M80.9,31.3c0,3.4-1.8,5.5-4.5,5.5c-1.4,0.1-2.7-0.7-3.4-1.9h-0.1v5.4h-2.2V25.8h2.2v1.8l0,0
				c0.7-1.2,2-2,3.5-1.9C79.1,25.7,80.9,27.9,80.9,31.3z M78.6,31.3c0-2.2-1.1-3.6-2.9-3.6c-1.7,0-2.8,1.5-2.8,3.6
				c0,2.2,1.1,3.7,2.8,3.7C77.5,34.9,78.6,33.5,78.6,31.3z"/>
			<path class="st1" d="M92.8,31.3c0,3.4-1.8,5.5-4.5,5.5c-1.4,0.1-2.7-0.7-3.4-1.9h-0.1v5.4h-2.2V25.8h2.2v1.8l0,0
				c0.7-1.2,2-2,3.5-1.9C91,25.7,92.8,27.9,92.8,31.3z M90.6,31.3c0-2.2-1.1-3.6-2.9-3.6c-1.7,0-2.8,1.5-2.8,3.6
				c0,2.2,1.1,3.7,2.8,3.7C89.4,34.9,90.6,33.5,90.6,31.3L90.6,31.3z"/>
			<path class="st1" d="M100.8,32.5c0.2,1.5,1.6,2.4,3.6,2.4c1.9,0,3.2-1,3.2-2.3c0-1.2-0.8-1.8-2.7-2.3l-1.9-0.5
				c-2.7-0.7-4-1.9-4-4c0-2.6,2.2-4.3,5.4-4.3c3.1,0,5.3,1.8,5.4,4.3h-2.3c-0.1-1.5-1.4-2.4-3.2-2.4s-3,0.9-3,2.2
				c0,1.1,0.8,1.7,2.7,2.1l1.6,0.4c3.1,0.7,4.3,2,4.3,4.1c0,2.8-2.2,4.5-5.8,4.5c-3.3,0-5.5-1.7-5.7-4.4L100.8,32.5z"/>
			<path class="st1" d="M114.7,23.3v2.6h2.1v1.8h-2.1v6c0,0.9,0.4,1.4,1.3,1.4c0.2,0,0.5,0,0.7-0.1v1.8c-0.4,0.1-0.8,0.1-1.2,0.1
				c-2.2,0-3.1-0.8-3.1-2.9v-6.2h-1.6V26h1.6v-2.6L114.7,23.3L114.7,23.3z"/>
			<path class="st1" d="M118,31.3c0-3.4,2-5.6,5.2-5.6c3.1,0,5.2,2.1,5.2,5.6c0,3.4-2,5.6-5.2,5.6C120,36.8,118,34.7,118,31.3z
				 M126,31.3c0-2.3-1.1-3.7-2.9-3.7s-2.9,1.4-2.9,3.7c0,2.4,1.1,3.7,2.9,3.7S126,33.6,126,31.3L126,31.3z"/>
			<path class="st1" d="M130.1,25.8h2.1v1.8h0.1c0.3-1.2,1.4-2,2.6-2c0.3,0,0.5,0,0.8,0.1v2.1c-0.3-0.1-0.7-0.1-1-0.1
				c-1.2-0.1-2.3,0.9-2.3,2.2c0,0.1,0,0.2,0,0.3v6.4h-2.2L130.1,25.8z"/>
			<path class="st1" d="M146,33.5c-0.3,2-2.2,3.3-4.7,3.3c-3.2,0-5.1-2.1-5.1-5.5s2-5.6,5-5.6s4.9,2.1,4.9,5.4v0.8h-7.7V32
				c-0.1,1.6,1,2.9,2.6,3.1c0.1,0,0.2,0,0.4,0c1.1,0.1,2.1-0.5,2.5-1.5L146,33.5z M138.4,30.3h5.4c0.1-1.4-1-2.7-2.5-2.8
				c-0.1,0-0.1,0-0.2,0C139.7,27.5,138.4,28.7,138.4,30.3C138.4,30.2,138.4,30.3,138.4,30.3z"/>
		</g>
		<path class="st1" d="M121.2,16.3c-0.3,1-1.3,1.7-2.3,1.6c-1.4,0-2.5-1-2.5-2.4c0-0.1,0-0.3,0-0.4c-0.2-1.4,0.8-2.6,2.1-2.8
			c0.1,0,0.2,0,0.4,0c1.5,0,2.4,1,2.4,2.7v0.4h-3.8v0.1c-0.1,0.8,0.5,1.5,1.3,1.5h0.1c0.5,0.1,1-0.2,1.3-0.7H121.2z M117.5,14.5h2.7
			c0.1-0.7-0.5-1.3-1.2-1.4h-0.1C118.1,13.1,117.5,13.7,117.5,14.5L117.5,14.5L117.5,14.5z"/>
		<path class="st1" d="M122.7,12.3h1v0.9h0.1c0.3-0.6,0.9-1,1.6-1c1-0.1,1.8,0.7,1.9,1.6c0,0.1,0,0.3,0,0.4v3.5h-1.1v-3.2
			c0-0.9-0.4-1.3-1.2-1.3c-0.7,0-1.3,0.5-1.3,1.2c0,0.1,0,0.1,0,0.2v3.2h-1V12.3z"/>
		<path class="st1" d="M136.5,16.3c-0.3,1-1.3,1.7-2.3,1.6c-1.4,0-2.5-1-2.5-2.4c0-0.1,0-0.3,0-0.4c-0.2-1.4,0.8-2.6,2.1-2.8
			c0.1,0,0.2,0,0.4,0c1.5,0,2.4,1,2.4,2.7v0.4h-3.9v0.1c-0.1,0.8,0.5,1.5,1.3,1.5h0.1c0.5,0.1,1-0.2,1.3-0.7H136.5z M132.7,14.5h2.7
			c0.1-0.7-0.5-1.3-1.2-1.4h-0.1C133.4,13.1,132.7,13.7,132.7,14.5L132.7,14.5L132.7,14.5z"/>
		<path class="st1" d="M138,10.2h1.1v7.5H138V10.2z"/>
	</g>
</g>
</svg>
