<?xml version="1.0" encoding="utf-8"?>
<!-- Generator: Adobe Illustrator 23.0.3, SVG Export Plug-In . SVG Version: 6.00 Build 0)  -->
<svg version="1.1" id="livetype" xmlns="http://www.w3.org/2000/svg" xmlns:xlink="http://www.w3.org/1999/xlink" x="0px" y="0px"
	 viewBox="0 0 168 48" style="enable-background:new 0 0 168 48;" xml:space="preserve" width="168" height="48">
<style type="text/css">
	.st0{fill:#A6A6A6;}
	.st1{fill:#FFFFFF;}
</style>
<g>
	<path class="st0" d="M159,48H9c-4.9706,0-9-4.0294-9-9V9c0-4.9706,4.0294-9,9-9h150c4.9706,0,9,4.0294,9,9v30
		C168,43.9706,163.9706,48,159,48z"/>
	<path d="M158,47H10c-4.9706,0-9-3.0294-9-8V9c0-4.9706,4.0294-8,9-8h148c4.9706,0,9,3.0294,9,8v30C167,43.9706,162.9706,47,158,47z
		"/>
</g>
<g id="_Group_2_1_">
	<g id="_Group_3_1_">
		<path id="_Path__1_" class="st1" d="M35.8,24.5c0-2,1.1-3.9,2.8-5c-1.1-1.6-2.9-2.5-4.8-2.6c-2-0.2-4,1.2-5,1.2s-2.6-1.2-4.3-1.1
			c-2.2,0.1-4.3,1.3-5.4,3.3c-2.3,4-0.6,9.9,1.6,13.2c1.1,1.6,2.4,3.4,4.1,3.3c1.7-0.1,2.3-1.1,4.3-1.1s2.6,1.1,4.3,1
			c1.8,0,2.9-1.6,4-3.2c0.8-1.1,1.4-2.4,1.8-3.7C37.2,28.8,35.8,26.8,35.8,24.5z"/>
		<path id="_Path_2_1_" class="st1" d="M32.5,14.8c1-1.2,1.5-2.7,1.3-4.2c-1.5,0.2-2.9,0.9-3.8,2c-1,1.1-1.5,2.6-1.4,4
			C30.2,16.6,31.6,15.9,32.5,14.8z"/>
	</g>
</g>
<g>
	<g>
		<path class="st1" d="M65.5,32.8h-5.7l-1.4,4H56l5.4-14.9h2.5l5.4,14.9h-2.4L65.5,32.8z M60.4,30.9h4.5l-2.2-6.5h-0.1L60.4,30.9z"
			/>
		<path class="st1" d="M80.9,31.4c0,3.4-1.8,5.5-4.5,5.5C75,37,73.7,36.2,73,35h-0.1v5.4h-2.2V25.9h2.2v1.8l0,0c0.7-1.2,2-2,3.5-1.9
			C79.1,25.8,80.9,28,80.9,31.4z M78.6,31.4c0-2.2-1.1-3.6-2.9-3.6c-1.7,0-2.8,1.5-2.8,3.6c0,2.2,1.1,3.7,2.8,3.7
			C77.5,35,78.6,33.6,78.6,31.4z"/>
		<path class="st1" d="M92.8,31.4c0,3.4-1.8,5.5-4.5,5.5c-1.4,0.1-2.7-0.7-3.4-1.9h-0.1v5.4h-2.2V25.9h2.2v1.8l0,0
			c0.7-1.2,2-2,3.5-1.9C91,25.8,92.8,28,92.8,31.4z M90.6,31.4c0-2.2-1.1-3.6-2.9-3.6c-1.7,0-2.8,1.5-2.8,3.6c0,2.2,1.1,3.7,2.8,3.7
			C89.4,35,90.6,33.6,90.6,31.4L90.6,31.4z"/>
		<path class="st1" d="M100.8,32.6c0.2,1.5,1.6,2.4,3.6,2.4c1.9,0,3.2-1,3.2-2.3c0-1.2-0.8-1.8-2.7-2.3l-1.9-0.5c-2.7-0.7-4-1.9-4-4
			c0-2.6,2.2-4.3,5.4-4.3c3.1,0,5.3,1.8,5.4,4.3h-2.3c-0.1-1.5-1.4-2.4-3.2-2.4s-3,0.9-3,2.2c0,1.1,0.8,1.7,2.7,2.1l1.6,0.4
			c3.1,0.7,4.3,2,4.3,4.1c0,2.8-2.2,4.5-5.8,4.5c-3.3,0-5.5-1.7-5.7-4.4L100.8,32.6z"/>
		<path class="st1" d="M114.7,23.4V26h2.1v1.8h-2.1v6c0,0.9,0.4,1.4,1.3,1.4c0.2,0,0.5,0,0.7-0.1v1.8c-0.4,0.1-0.8,0.1-1.2,0.1
			c-2.2,0-3.1-0.8-3.1-2.9v-6.2h-1.6v-1.8h1.6v-2.6L114.7,23.4L114.7,23.4z"/>
		<path class="st1" d="M118,31.4c0-3.4,2-5.6,5.2-5.6c3.1,0,5.2,2.1,5.2,5.6c0,3.4-2,5.6-5.2,5.6C120,36.9,118,34.8,118,31.4z
			 M126,31.4c0-2.3-1.1-3.7-2.9-3.7s-2.9,1.4-2.9,3.7c0,2.4,1.1,3.7,2.9,3.7S126,33.7,126,31.4L126,31.4z"/>
		<path class="st1" d="M130.1,25.9h2.1v1.8h0.1c0.3-1.2,1.4-2,2.6-2c0.3,0,0.5,0,0.8,0.1v2.1c-0.3-0.1-0.7-0.1-1-0.1
			c-1.2-0.1-2.3,0.9-2.3,2.2c0,0.1,0,0.2,0,0.3v6.4h-2.2L130.1,25.9z"/>
		<path class="st1" d="M146,33.6c-0.3,2-2.2,3.3-4.7,3.3c-3.2,0-5.1-2.1-5.1-5.5s2-5.6,5-5.6s4.9,2.1,4.9,5.4V32h-7.7v0.1
			c-0.1,1.6,1,2.9,2.6,3.1c0.1,0,0.2,0,0.4,0c1.1,0.1,2.1-0.5,2.5-1.5L146,33.6z M138.4,30.4h5.4c0.1-1.4-1-2.7-2.5-2.8
			c-0.1,0-0.1,0-0.2,0C139.7,27.6,138.4,28.8,138.4,30.4C138.4,30.3,138.4,30.4,138.4,30.4z"/>
	</g>
	<path class="st1" d="M60.1,10.7c1.7-0.1,3.3,1.2,3.4,2.9c0,0.2,0,0.4,0,0.6c0,2.3-1.2,3.6-3.4,3.6h-2.6v-7.2L60.1,10.7L60.1,10.7z
		 M58.6,16.8h1.3c1.2,0.1,2.3-0.9,2.4-2.1c0-0.2,0-0.3,0-0.5c0.2-1.2-0.7-2.4-1.9-2.5c-0.1,0-0.3,0-0.4,0h-1.3L58.6,16.8L58.6,16.8z
		"/>
	<path class="st1" d="M64.7,15.1c-0.1-1.4,0.9-2.7,2.3-2.8s2.7,0.9,2.8,2.3c0,0.2,0,0.3,0,0.5c0.1,1.4-0.9,2.7-2.3,2.8
		c-1.4,0.1-2.7-0.9-2.8-2.3C64.7,15.5,64.7,15.3,64.7,15.1z M68.7,15.1c0-1.2-0.5-1.9-1.4-1.9s-1.4,0.7-1.4,1.9s0.5,1.9,1.4,1.9
		S68.7,16.3,68.7,15.1L68.7,15.1z"/>
	<path class="st1" d="M76.6,17.8h-1.1l-1.1-4h-0.1l-1.1,4h-1.1l-1.5-5.4h1.1l1,4.1l0,0l1.1-4.1h1l1.1,4.1H76l1-4.1h1.1L76.6,17.8z"
		/>
	<path class="st1" d="M79.3,12.4h1v0.9h0.1c0.3-0.6,0.9-1,1.6-1c1-0.1,1.8,0.7,1.9,1.6c0,0.1,0,0.3,0,0.4v3.5h-1.1v-3.2
		c0-0.9-0.4-1.3-1.2-1.3c-0.7,0-1.3,0.5-1.3,1.2c0,0.1,0,0.1,0,0.2v3.2h-1.1L79.3,12.4z"/>
	<path class="st1" d="M85.6,10.3h1.1v7.5h-1.1V10.3z"/>
	<path class="st1" d="M88.2,15.1c-0.1-1.4,0.9-2.7,2.3-2.8s2.7,0.9,2.8,2.3c0,0.2,0,0.3,0,0.5c0.1,1.4-0.9,2.7-2.3,2.8
		c-1.4,0.1-2.7-0.9-2.8-2.3C88.1,15.5,88.1,15.3,88.2,15.1z M92.2,15.1c0-1.2-0.5-1.9-1.4-1.9s-1.4,0.7-1.4,1.9s0.5,1.9,1.4,1.9
		C91.6,17,92.2,16.3,92.2,15.1z"/>
	<path class="st1" d="M94.4,16.3c0-1,0.7-1.5,2-1.6l1.5-0.1v-0.5c0-0.6-0.4-0.9-1.1-0.9c-0.6,0-1,0.2-1.1,0.6h-1
		c0.1-0.9,1-1.5,2.2-1.5c1.4,0,2.1,0.7,2.1,1.8v3.7h-1V17h-0.1c-0.3,0.6-1,0.9-1.6,0.8C95.4,17.9,94.6,17.2,94.4,16.3
		C94.4,16.4,94.4,16.4,94.4,16.3z M97.9,15.8v-0.5l-1.3,0.1c-0.7,0-1.1,0.3-1.1,0.8s0.4,0.8,1,0.8C97.2,17.1,97.8,16.6,97.9,15.8
		C97.9,15.9,97.9,15.9,97.9,15.8z"/>
	<path class="st1" d="M100.3,15.1c0-1.7,0.9-2.8,2.2-2.8c0.7,0,1.3,0.3,1.7,0.9h0.1v-3h1.1v7.5h-1v-0.9h-0.1c-0.3,0.6-1,1-1.7,0.9
		C101.2,17.9,100.3,16.8,100.3,15.1z M101.4,15.1c0,1.1,0.5,1.8,1.4,1.8s1.5-0.7,1.5-1.8s-0.6-1.8-1.5-1.8
		C102,13.3,101.4,14,101.4,15.1L101.4,15.1z"/>
	<path class="st1" d="M109.8,15.1c-0.1-1.4,0.9-2.7,2.3-2.8s2.7,0.9,2.8,2.3c0,0.2,0,0.3,0,0.5c0.1,1.4-0.9,2.7-2.3,2.8
		c-1.4,0.1-2.7-0.9-2.8-2.3C109.8,15.5,109.8,15.3,109.8,15.1z M113.8,15.1c0-1.2-0.5-1.9-1.4-1.9s-1.4,0.7-1.4,1.9s0.5,1.9,1.4,1.9
		C113.2,17,113.8,16.3,113.8,15.1z"/>
	<path class="st1" d="M116.3,12.4h1v0.9h0.1c0.3-0.6,0.9-1,1.6-1c1-0.1,1.8,0.7,1.9,1.6c0,0.1,0,0.3,0,0.4v3.5h-1.1v-3.2
		c0-0.9-0.4-1.3-1.2-1.3c-0.7,0-1.3,0.5-1.3,1.2c0,0.1,0,0.1,0,0.2v3.2h-1.1L116.3,12.4L116.3,12.4z"/>
	<path class="st1" d="M126.9,11.1v1.4h1.2v0.9h-1.2v2.8c0,0.6,0.2,0.8,0.8,0.8c0.1,0,0.3,0,0.4,0v0.9c-0.2,0-0.4,0.1-0.6,0.1
		c-1.2,0-1.7-0.4-1.7-1.5v-3.1h-0.9v-0.9h0.9v-1.4C125.8,11.1,126.9,11.1,126.9,11.1z"/>
	<path class="st1" d="M129.5,10.3h1.1v3h0.1c0.3-0.6,0.9-1,1.6-1c1-0.1,1.8,0.7,1.9,1.7c0,0.1,0,0.2,0,0.3v3.5h-1.1v-3.2
		c0-0.9-0.4-1.3-1.2-1.3c-0.7-0.1-1.3,0.5-1.4,1.2c0,0.1,0,0.1,0,0.2v3.2h-1.1L129.5,10.3z"/>
	<path class="st1" d="M140.4,16.4c-0.3,1-1.3,1.7-2.3,1.6c-1.4,0-2.5-1-2.5-2.4c0-0.1,0-0.3,0-0.4c-0.2-1.4,0.8-2.6,2.1-2.8
		c0.1,0,0.2,0,0.4,0c1.5,0,2.4,1,2.4,2.7v0.4h-3.8v0.1c-0.1,0.8,0.5,1.5,1.3,1.5h0.1c0.5,0.1,1-0.2,1.3-0.7H140.4z M136.7,14.6h2.7
		c0.1-0.7-0.5-1.3-1.2-1.4h-0.1C137.3,13.2,136.7,13.8,136.7,14.6L136.7,14.6L136.7,14.6z"/>
</g>
</svg>
