<?xml version="1.0" encoding="utf-8"?>
<!-- Generator: Adobe Illustrator 23.0.3, SVG Export Plug-In . SVG Version: 6.00 Build 0)  -->
<svg version="1.1" id="livetype" xmlns="http://www.w3.org/2000/svg" xmlns:xlink="http://www.w3.org/1999/xlink" x="0px" y="0px"
	 viewBox="0 0 168 48" style="enable-background:new 0 0 168 48;" xml:space="preserve" width="168" height="48">
<style type="text/css">
	.st0{fill:#A6A6A6;}
	.st1{fill:#FFFFFF;}
</style>
<path class="st0" d="M159,48H9c-4.9706,0-9-4.0294-9-9V9c0-4.9706,4.0294-9,9-9h150c4.9706,0,9,4.0294,9,9v30
	C168,43.9706,163.9706,48,159,48z"/>
<path d="M158,47H10c-4.9706,0-9-3.0294-9-8V9c0-4.9706,4.0294-8,9-8h148c4.9706,0,9,3.0294,9,8v30C167,43.9706,162.9706,47,158,47z"
	/>
<g id="_Group_2">
	<g id="_Group_3">
		<path id="_Path_" class="st1" d="M35.8,24.4c0-2,1.1-3.9,2.8-5c-1.1-1.6-2.9-2.5-4.8-2.6c-2-0.2-4,1.2-5,1.2s-2.6-1.2-4.3-1.1
			c-2.2,0.1-4.3,1.3-5.4,3.3c-2.3,4-0.6,9.9,1.6,13.2c1.1,1.6,2.4,3.4,4.1,3.3c1.7-0.1,2.3-1.1,4.3-1.1s2.6,1.1,4.3,1
			c1.8,0,2.9-1.6,4-3.2c0.8-1.1,1.4-2.4,1.8-3.7C37.2,28.7,35.8,26.7,35.8,24.4z"/>
		<path id="_Path_2" class="st1" d="M32.5,14.7c1-1.2,1.5-2.7,1.3-4.2c-1.5,0.2-2.9,0.9-3.8,2c-1,1.1-1.5,2.6-1.4,4
			C30.2,16.5,31.6,15.8,32.5,14.7z"/>
	</g>
</g>
<g>
	<path class="st1" d="M65.5,32.6h-5.7l-1.4,4H56l5.4-14.9h2.5l5.4,14.9h-2.4L65.5,32.6z M60.4,30.7h4.5l-2.2-6.5h-0.1L60.4,30.7z"/>
	<path class="st1" d="M80.9,31.2c0,3.4-1.8,5.5-4.5,5.5C75,36.8,73.7,36,73,34.8h-0.1v5.4h-2.2V25.7h2.2v1.8l0,0
		c0.7-1.2,2-2,3.5-1.9C79.1,25.6,80.9,27.8,80.9,31.2z M78.6,31.2c0-2.2-1.1-3.6-2.9-3.6c-1.7,0-2.8,1.5-2.8,3.6
		c0,2.2,1.1,3.7,2.8,3.7C77.5,34.8,78.6,33.4,78.6,31.2z"/>
	<path class="st1" d="M92.8,31.2c0,3.4-1.8,5.5-4.5,5.5c-1.4,0.1-2.7-0.7-3.4-1.9h-0.1v5.4h-2.2V25.7h2.2v1.8l0,0
		c0.7-1.2,2-2,3.5-1.9C91,25.6,92.8,27.8,92.8,31.2z M90.6,31.2c0-2.2-1.1-3.6-2.9-3.6c-1.7,0-2.8,1.5-2.8,3.6
		c0,2.2,1.1,3.7,2.8,3.7C89.4,34.8,90.6,33.4,90.6,31.2L90.6,31.2z"/>
	<path class="st1" d="M100.8,32.4c0.2,1.5,1.6,2.4,3.6,2.4c1.9,0,3.2-1,3.2-2.3c0-1.2-0.8-1.8-2.7-2.3l-1.9-0.5c-2.7-0.7-4-1.9-4-4
		c0-2.6,2.2-4.3,5.4-4.3c3.1,0,5.3,1.8,5.4,4.3h-2.3c-0.1-1.5-1.4-2.4-3.2-2.4s-3,0.9-3,2.2c0,1.1,0.8,1.7,2.7,2.1l1.6,0.4
		c3.1,0.7,4.3,2,4.3,4.1c0,2.8-2.2,4.5-5.8,4.5c-3.3,0-5.5-1.7-5.7-4.4L100.8,32.4z"/>
	<path class="st1" d="M114.7,23.2v2.6h2.1v1.8h-2.1v6c0,0.9,0.4,1.4,1.3,1.4c0.2,0,0.5,0,0.7-0.1v1.8c-0.4,0.1-0.8,0.1-1.2,0.1
		c-2.2,0-3.1-0.8-3.1-2.9v-6.2h-1.6v-1.8h1.6v-2.6L114.7,23.2L114.7,23.2z"/>
	<path class="st1" d="M118,31.2c0-3.4,2-5.6,5.2-5.6c3.1,0,5.2,2.1,5.2,5.6c0,3.4-2,5.6-5.2,5.6C120,36.7,118,34.6,118,31.2z
		 M126,31.2c0-2.3-1.1-3.7-2.9-3.7s-2.9,1.4-2.9,3.7c0,2.4,1.1,3.7,2.9,3.7S126,33.5,126,31.2L126,31.2z"/>
	<path class="st1" d="M130.1,25.7h2.1v1.8h0.1c0.3-1.2,1.4-2,2.6-2c0.3,0,0.5,0,0.8,0.1v2.1c-0.3-0.1-0.7-0.1-1-0.1
		c-1.2-0.1-2.3,0.9-2.3,2.2c0,0.1,0,0.2,0,0.3v6.4h-2.2L130.1,25.7z"/>
	<path class="st1" d="M146,33.4c-0.3,2-2.2,3.3-4.7,3.3c-3.2,0-5.1-2.1-5.1-5.5s2-5.6,5-5.6s4.9,2.1,4.9,5.4v0.8h-7.7v0.1
		c-0.1,1.6,1,2.9,2.6,3.1c0.1,0,0.2,0,0.4,0c1.1,0.1,2.1-0.5,2.5-1.5L146,33.4z M138.4,30.2h5.4c0.1-1.4-1-2.7-2.5-2.8
		c-0.1,0-0.1,0-0.2,0C139.7,27.4,138.4,28.6,138.4,30.2C138.4,30.1,138.4,30.2,138.4,30.2z"/>
</g>
<g>
	<path class="st1" d="M62,17.6h-4.5v-7.2h1.1v6.1H62V17.6z"/>
	<path class="st1" d="M63.1,16.1c0-1,0.7-1.5,2-1.6l1.5-0.1v-0.5c0-0.6-0.4-0.9-1.1-0.9c-0.6,0-1,0.2-1.1,0.6h-1
		c0.1-0.9,1-1.5,2.2-1.5c1.4,0,2.1,0.7,2.1,1.8v3.7h-1v-0.8h-0.1c-0.3,0.6-1,0.9-1.6,0.8c-0.9,0.1-1.7-0.6-1.8-1.5
		C63.1,16.2,63.1,16.2,63.1,16.1z M66.6,15.6v-0.5l-1.3,0.1c-0.7,0-1.1,0.3-1.1,0.8c0,0.5,0.4,0.8,1,0.8
		C65.9,16.9,66.5,16.4,66.6,15.6C66.6,15.7,66.6,15.7,66.6,15.6z"/>
	<path class="st1" d="M69,14.9c0-1.7,0.9-2.8,2.2-2.8c0.7,0,1.3,0.3,1.7,0.9H73v-3h1.1v7.5h-1v-0.9H73c-0.3,0.6-1,1-1.7,0.9
		C69.9,17.7,69,16.6,69,14.9z M70.1,14.9c0,1.1,0.5,1.8,1.4,1.8S73,16,73,14.9s-0.6-1.8-1.5-1.8C70.7,13.1,70.1,13.8,70.1,14.9
		L70.1,14.9z"/>
	<path class="st1" d="M80.4,16.2c-0.3,1-1.3,1.7-2.3,1.6c-1.4,0-2.5-1-2.5-2.4c0-0.1,0-0.3,0-0.4c-0.2-1.4,0.8-2.6,2.1-2.8
		c0.1,0,0.2,0,0.4,0c1.5,0,2.4,1,2.4,2.7v0.4h-3.8v0.1c-0.1,0.8,0.5,1.5,1.3,1.5h0.1c0.5,0.1,1-0.2,1.3-0.7H80.4z M76.6,14.4h2.7
		c0.1-0.7-0.5-1.3-1.2-1.4H78C77.3,13,76.7,13.6,76.6,14.4L76.6,14.4L76.6,14.4z"/>
	<path class="st1" d="M81.9,12.2h1v0.9H83c0.3-0.6,0.9-1,1.6-1c1-0.1,1.8,0.7,1.9,1.6c0,0.1,0,0.3,0,0.4v3.5h-1.1v-3.2
		c0-0.9-0.4-1.3-1.2-1.3c-0.7,0-1.3,0.5-1.3,1.2c0,0.1,0,0.1,0,0.2v3.2h-1.1L81.9,12.2z"/>
	<path class="st1" d="M90.9,10.6c0-0.4,0.3-0.7,0.6-0.7c0.4,0,0.7,0.3,0.7,0.6c0,0.4-0.3,0.7-0.6,0.7l0,0
		C91.3,11.3,90.9,11,90.9,10.6C90.9,10.7,90.9,10.6,90.9,10.6z M91.1,12.2h1.1v5.4h-1.1V12.2z"/>
	<path class="st1" d="M93.9,12.2h1v0.9H95c0.4-0.8,1.3-1.2,2.2-0.8c0.4,0.2,0.7,0.5,0.8,0.8h0.1c0.3-0.6,1-1,1.6-1
		c0.9-0.1,1.7,0.6,1.7,1.5c0,0.1,0,0.2,0,0.3v3.7h-1.1v-3.4c0-0.7-0.3-1.1-1-1.1c-0.6,0-1.1,0.4-1.1,1v0.1v3.4h-1v-3.5
		c0-0.5-0.4-1-0.9-1h-0.1c-0.6,0-1.2,0.5-1.1,1.2l0,0v3.3H94L93.9,12.2z"/>
</g>
</svg>
