<svg id="Ebene_1" xmlns="http://www.w3.org/2000/svg" width="168" height="48" viewBox="0 0 168 48"><style>.st0{fill:#d2d2d2}.st1{fill:#fff}.st2{fill:#7eb900}.st3{fill:#f15021}.st4{fill:#00a3ee}.st5{fill:#ffb800}</style><path class="st0" d="M0 0h168l-.24 48H0V0z"/><path d="M.59.6h166.82v46.8H.59V.6z"/><path class="st1" d="M65.16 33.36l-.84 2.52c-.12-.6-.36-1.32-.84-2.52l-4.8-11.76h-4.56v18.72h3V28.8v-2.64c0-.48 0-.84-.12-1.2.12.72.24 1.2.36 1.56L63 40.2h2.16l5.64-13.8c.12-.36.24-.96.36-1.44 0 1.32-.12 2.64-.12 3.36V40.2h3.24V21.6H69.6c.36 0-4.44 11.76-4.44 11.76zm36.84-6.6c-.72 0-1.44.24-2.16.72-.48.48-.84 1.08-1.2 1.8v-2.4h-3.12v13.44h3.12v-6.96c0-1.08.24-2.16.72-2.88s1.2-1.08 2.04-1.08c.24 0 .6.12.96.12.36.12.6.24.72.36l.12.12v-3.12c-.24-.12-.6-.12-1.2-.12zm-10.32 0c-.6-.12-1.2-.24-1.68-.24-1.32 0-2.76.36-3.84.96s-2.04 1.44-2.52 2.64c-.6 1.08-.84 2.4-.84 3.72 0 1.2.24 2.52.84 3.48.48.96 1.32 1.8 2.4 2.52.96.6 2.16.84 3.48.84 1.44 0 2.76-.36 3.84-.84v-3l-.12.12c-.48.36-.96.6-1.44.72-.48.24-1.08.24-1.44.24-1.2 0-2.28-.36-3-1.08-.72-.72-1.08-1.8-1.08-3.24 0-1.32.36-2.52 1.08-3.36.72-.72 1.68-1.2 3-1.2.96 0 2.04.36 3 .96l.12.12V27c-.6.12-1.08-.12-1.8-.24zm-12.6-5.64c-.48 0-.96.24-1.32.48-.36.24-.48.72-.48 1.32 0 .48.24.96.48 1.2s.72.48 1.32.48.96-.24 1.32-.48c.36-.36.48-.72.48-1.2s-.24-.96-.48-1.32c-.36-.24-.84-.48-1.32-.48zm-1.68 19.2h3.12V26.88H77.4v13.44zm58.8-13.68c-2.28 0-3.96.6-5.16 1.92-1.2 1.2-1.92 3.12-1.92 5.28s.6 3.84 1.92 5.04c1.2 1.2 2.88 1.8 4.92 1.8s3.84-.6 5.04-1.92c1.2-1.32 1.92-3.12 1.92-5.16 0-2.16-.6-3.84-1.68-5.04-1.32-1.32-3.12-1.92-5.04-1.92zm2.4 10.32c-.6.72-1.44 1.08-2.64 1.08-1.08 0-2.04-.36-2.76-1.08-.6-.72-.96-1.8-.96-3.24 0-1.44.36-2.52.96-3.36.6-.72 1.56-1.08 2.76-1.08 1.08 0 2.04.36 2.64 1.08.6.72.96 1.8.96 3.36-.12 1.32-.36 2.52-.96 3.24zm-14.4-4.44c-.96-.36-1.56-.72-1.92-.96-.24-.24-.36-.6-.36-.96s.12-.72.48-.96.72-.36 1.32-.36c.48 0 1.08.12 1.56.24s.96.36 1.32.6l.12.12v-3c-.36-.12-.84-.24-1.32-.36-.6-.12-1.08-.12-1.56-.12-1.44 0-2.76.36-3.72 1.08-.96.72-1.32 1.68-1.32 3 0 .6.12 1.2.24 1.56.24.48.48.84.96 1.2.36.36 1.08.72 2.04 1.08.72.36 1.2.6 1.56.72.36.24.48.36.72.6.12.24.24.48.24.72 0 .84-.6 1.32-2.04 1.32-.48 0-1.08-.12-1.68-.36-.6-.24-1.2-.48-1.68-.84l-.12-.12v3.12c.48.24.96.36 1.68.48.6.12 1.2.24 1.92.24 1.56 0 3-.36 3.84-1.08.96-.72 1.44-1.68 1.44-3.12 0-.84-.24-1.68-.72-2.4-.84-.36-1.68-.96-3-1.44zm-13.56-5.88c-2.28 0-3.96.6-5.16 1.92-1.2 1.2-1.92 3.12-1.92 5.28s.6 3.84 1.92 5.04c1.2 1.2 2.88 1.8 4.92 1.8s3.84-.6 5.04-1.92 1.92-3.12 1.92-5.16c0-2.16-.6-3.84-1.68-5.04-1.32-1.32-3-1.92-5.04-1.92zm2.4 10.32c-.6.72-1.44 1.08-2.64 1.08-1.08 0-2.04-.36-2.76-1.08-.6-.72-.96-1.8-.96-3.24 0-1.44.36-2.52.96-3.36.6-.72 1.56-1.08 2.76-1.08 1.08 0 2.04.36 2.64 1.08.6.72.96 1.8.96 3.36-.12 1.32-.36 2.52-.96 3.24zm46.44-7.56v-2.64h-3.24V22.8h-.12l-3 .84v3.12h-4.68v-1.68c0-.72.24-1.32.48-1.68.36-.36.84-.6 1.44-.6.36 0 .84.12 1.32.36l.12.12v-2.76c-.36-.12-.96-.24-1.68-.24-.96 0-1.68.24-2.52.6-.72.36-1.32.96-1.68 1.68s-.6 1.56-.6 2.52v1.8h-2.28v2.64h2.28v10.92h3.24V29.52h4.68v6.96c0 2.88 1.32 4.32 3.96 4.32.36 0 .84-.12 1.32-.12.48-.12.72-.24.96-.36v-2.64l-.12.12c-.24.12-.36.24-.6.24-.24.12-.48.12-.6.12-.6 0-1.08-.12-1.32-.48s-.36-.84-.36-1.68v-6.36l3-.24zm-99.6-17.64H55.2V7.68H54v9.12h1.08v-4.2h4.68v4.2h1.08V7.68h-1.08v4.08h.12zm5.76-1.56c-.84 0-1.56.36-2.16.96-.6.6-.84 1.44-.84 2.52s.24 1.8.72 2.52c.48.6 1.2.84 2.16.84s1.68-.24 2.28-.6v-.96c-.6.48-1.2.72-2.04.72-.6 0-1.08-.24-1.44-.6-.36-.36-.6-.96-.6-1.68h4.56v-.72c0-.96-.24-1.68-.72-2.4-.48-.48-1.08-.6-1.92-.6zm-1.92 2.76c.12-.6.24-.96.6-1.32.36-.36.72-.48 1.2-.48s.84.12 1.2.48c.24.36.36.72.36 1.32h-3.36zm8.16-2.28c-.24.24-.48.6-.6 1.08v-1.44H70.2v6.48h.96v-3.36c0-.72.12-1.32.48-1.68.24-.36.6-.6 1.08-.6.36 0 .6.12.72.24v-1.08c-.12-.12-.36-.12-.6-.12-.36 0-.72.24-.96.48zm6.72 3.48c0 .6-.12 1.08-.48 1.44-.36.36-.72.6-1.2.6-.96 0-1.56-.72-1.56-2.04v-3.72h-.96v3.84c0 1.8.72 2.76 2.4 2.76.84 0 1.56-.36 2.04-1.2v.96h.96v-6.36h-.96v3.72h-.24zm6.6-3.96c-.84 0-1.56.36-2.16 1.2v-1.08h-.96v6.48h.96v-3.72c0-.6.12-1.08.48-1.44.36-.36.72-.6 1.2-.6.96 0 1.44.72 1.44 2.16v3.6h.96v-3.96c0-.84-.24-1.44-.6-1.92-.12-.48-.6-.72-1.32-.72zm5.64-1.8l-.96.36v1.56H88.8v.84h1.08V15c0 1.2.6 1.8 1.68 1.8.36 0 .72-.12.96-.24v-.84c-.24.12-.36.24-.6.24-.36 0-.6-.12-.72-.24s-.24-.48-.24-.96v-3.6h1.44v-.84h-1.56V8.4zm5.64 1.8c-.84 0-1.56.36-2.16.96-.6.6-.84 1.44-.84 2.52s.24 1.8.72 2.52c.48.6 1.2.84 2.16.84.96 0 1.68-.24 2.28-.6v-.96c-.6.48-1.2.72-2.04.72-.6 0-1.08-.24-1.44-.6-.36-.36-.6-.96-.6-1.68h4.56v-.72c0-.96-.24-1.68-.72-2.4-.48-.24-1.2-.6-1.92-.6zm-2.04 2.76c.12-.6.24-.96.6-1.32.36-.36.72-.48 1.2-.48s.84.12 1.2.48c.24.36.36.72.36 1.32h-3.36zm8.16-2.28c-.24.24-.48.6-.6 1.08v-1.44h-.96v6.48h.96v-3.36c0-.72.12-1.32.48-1.68.24-.36.6-.6 1.08-.6.36 0 .6.12.72.24v-1.08c-.12-.12-.36-.12-.6-.12-.36 0-.84.24-1.08.48zm2.52 6.12h.96V7.2h-.96v9.6zm5.64-6.6c-.84 0-1.56.24-2.28.6v1.08c.6-.48 1.32-.72 2.16-.72.84 0 1.32.48 1.32 1.56l-2.04.24c-1.32.24-2.16.84-2.16 2.16 0 .6.12.96.48 1.32.36.36.84.48 1.44.48.84 0 1.44-.36 2.04-1.08v.96h1.08v-4.2c.24-1.56-.48-2.4-2.04-2.4zm1.2 4.08c0 .48-.12.96-.48 1.32-.36.36-.72.48-1.2.48-.36 0-.6-.12-.84-.36s-.36-.48-.36-.72c0-.48.12-.72.36-.84s.6-.24 1.08-.36l1.56-.24c-.12-.12-.12.72-.12.72zm7.44-3c-.36-.72-1.08-1.08-2.04-1.08-.84 0-1.56.36-2.16.96-.48.6-.72 1.44-.72 2.64 0 .96.24 1.68.72 2.4.48.6 1.08.84 2.04.84s1.68-.36 2.28-1.2v.96h.96V7.2h-.96l-.12 4.08zm0 2.64c0 .6-.12 1.08-.48 1.56s-.84.6-1.44.6-.96-.24-1.32-.6c-.36-.48-.48-.96-.48-1.68 0-.84.12-1.44.48-1.92s.84-.72 1.44-.72c.48 0 .96.12 1.32.48.36.36.48.72.48 1.32v.96zm5.52-3.72c-.84 0-1.56.36-2.16.96-.6.6-.84 1.44-.84 2.52s.24 1.8.72 2.52c.48.6 1.2.84 2.16.84.96 0 1.68-.24 2.28-.6v-.96c-.6.48-1.2.72-2.04.72-.6 0-1.08-.24-1.44-.6-.36-.36-.6-.96-.6-1.68h4.56v-.72c0-.96-.24-1.68-.72-2.4-.36-.24-.96-.6-1.92-.6zm-1.8 2.76c.12-.6.24-.96.6-1.32.36-.36.72-.48 1.2-.48s.84.12 1.2.48c.24.36.36.72.36 1.32h-3.36zm9.48-2.76c-.84 0-1.56.36-2.16 1.2v-1.08h-.96v6.48h.96v-3.72c0-.6.12-1.08.48-1.44.36-.36.72-.6 1.2-.6.96 0 1.44.72 1.44 2.16v3.6h.96v-3.96c0-.84-.24-1.44-.6-1.92-.12-.48-.6-.72-1.32-.72zm10.32 4.92c-.12.24-.12.48-.24.84 0-.36-.12-.6-.24-.84l-1.56-4.8h-1.08l2.52 6.6h.96l2.64-6.6h-1.08l-1.92 4.8zm6.6-4.92c-.96 0-1.92.36-2.4.96s-.84 1.44-.84 2.64c0 .96.24 1.8.84 2.4.6.6 1.32.84 2.28.84.96 0 1.68-.36 2.4-.96.6-.6.84-1.44.84-2.52s-.24-1.8-.72-2.52c-.6-.48-1.32-.84-2.4-.84zm1.56 5.28c-.36.48-.84.6-1.56.6-.6 0-1.2-.24-1.56-.6-.36-.48-.6-1.08-.6-1.8s.24-1.32.6-1.8.84-.72 1.56-.72c.72 0 1.2.24 1.56.6.36.48.48 1.08.48 1.8 0 .84-.12 1.44-.48 1.92zm7.92-4.56c-.36-.48-.84-.72-1.56-.72-.84 0-1.56.36-2.16 1.2v-1.08h-.96v6.48h.96v-3.72c0-.6.12-1.08.48-1.44.36-.36.72-.6 1.2-.6.96 0 1.44.72 1.44 2.16v3.6h.96v-3.96c.24-.84 0-1.44-.36-1.92z"/><path class="st2" d="M30 6h16.8v16.8H30V6z"/><path class="st3" d="M10.8 6h16.8v16.8H10.8V6z"/><path class="st4" d="M10.8 25.2h16.8V42H10.8V25.2z"/><path class="st5" d="M30 25.2h16.8V42H30V25.2z"/></svg>