<?xml version="1.0" encoding="utf-8"?>
<!-- Generator: Adobe Illustrator 23.0.3, SVG Export Plug-In . SVG Version: 6.00 Build 0)  -->
<svg version="1.1" id="Ebene_1" xmlns="http://www.w3.org/2000/svg" xmlns:xlink="http://www.w3.org/1999/xlink" x="0px" y="0px"
	 viewBox="0 0 168 48" style="enable-background:new 0 0 168 48;" xml:space="preserve" width="168" height="48">
<style type="text/css">
	.st0{fill:#A6A6A6;}
	.st1{fill:#FFFFFF;}
</style>
<g id="livetype">
	<g>
		<path class="st0" d="M159,48H9c-4.9706,0-9-4.0294-9-9V9c0-4.9706,4.0294-9,9-9h150c4.9706,0,9,4.0294,9,9v30
			C168,43.9706,163.9706,48,159,48z"/>
		<path d="M158,47H10c-4.9706,0-9-3.0294-9-8V9c0-4.9706,4.0294-8,9-8h148c4.9706,0,9,3.0294,9,8v30C167,43.9706,162.9706,47,158,47
			z"/>
	</g>
	<g id="_Group_2_1_">
		<g id="_Group_3_1_">
			<path id="_Path__1_" class="st1" d="M35.8,24.5c0-2,1.1-3.9,2.8-5c-1.1-1.6-2.9-2.5-4.8-2.6c-2-0.2-4,1.2-5,1.2s-2.6-1.2-4.3-1.1
				c-2.2,0.1-4.3,1.3-5.4,3.3c-2.3,4-0.6,9.9,1.6,13.2c1.1,1.6,2.4,3.4,4.1,3.3c1.7-0.1,2.3-1.1,4.3-1.1s2.6,1.1,4.3,1
				c1.8,0,2.9-1.6,4-3.2c0.8-1.1,1.4-2.4,1.8-3.7C37.2,28.8,35.8,26.8,35.8,24.5z"/>
			<path id="_Path_2_1_" class="st1" d="M32.5,14.8c1-1.2,1.5-2.7,1.3-4.2c-1.5,0.2-2.9,0.9-3.8,2c-1,1.1-1.5,2.6-1.4,4
				C30.2,16.6,31.6,15.9,32.5,14.8z"/>
		</g>
	</g>
	<g>
		<g>
			<path class="st1" d="M58.3,17.7v-6.1H56v-1h5.6v1h-2.2v6.1H58.3z"/>
			<path class="st1" d="M66.8,16.3c-0.3,1-1.3,1.7-2.3,1.6c-1.4,0-2.5-1-2.5-2.4c0-0.1,0-0.3,0-0.4c-0.2-1.4,0.8-2.6,2.1-2.8
				c0.1,0,0.2,0,0.4,0c1.5,0,2.4,1,2.4,2.7v0.4h-3.8v0.1C63,16.3,63.6,17,64.4,17h0.1c0.5,0.1,1-0.2,1.3-0.7H66.8z M63.1,14.5h2.7
				c0.1-0.7-0.5-1.3-1.2-1.4h-0.1C63.7,13.1,63.1,13.7,63.1,14.5L63.1,14.5L63.1,14.5z M63.8,11.4L65,9.7h1.3l-1.4,1.7H63.8z"/>
			<path class="st1" d="M68.4,10.2h1.1v7.5h-1.1V10.2z"/>
			<path class="st1" d="M75.7,16.3c-0.3,1-1.3,1.7-2.3,1.6c-1.4,0-2.5-1-2.5-2.4c0-0.1,0-0.3,0-0.4c-0.2-1.4,0.8-2.6,2.1-2.8
				c0.1,0,0.2,0,0.4,0c1.5,0,2.4,1,2.4,2.7v0.4H72v0.1c-0.1,0.8,0.5,1.5,1.3,1.5h0.1c0.5,0.1,1-0.2,1.3-0.7H75.7z M72,14.5h2.7
				c0.1-0.7-0.5-1.3-1.2-1.4h-0.1C72.6,13.1,72,13.7,72,14.5L72,14.5z M72.8,11.4L74,9.7h1.3l-1.4,1.7H72.8z"/>
			<path class="st1" d="M80.8,14.1c-0.1-0.6-0.7-1-1.3-0.9c-0.9,0-1.4,0.7-1.4,1.8c0,1.2,0.6,1.9,1.4,1.9c0.6,0.1,1.1-0.3,1.3-0.9h1
				c-0.1,1.1-1.2,2-2.3,1.8c-1.4,0-2.5-1-2.6-2.4c0-0.1,0-0.3,0-0.4c-0.2-1.3,0.8-2.6,2.1-2.8c0.1,0,0.3,0,0.4,0
				c1.2-0.1,2.2,0.7,2.3,1.9L80.8,14.1z"/>
			<path class="st1" d="M83.2,10.2h1.1v3h0.1c0.3-0.6,0.9-1,1.6-1c1-0.1,1.8,0.7,1.9,1.7c0,0.1,0,0.2,0,0.3v3.5h-1.1v-3.2
				c0-0.9-0.4-1.3-1.2-1.3c-0.7-0.1-1.3,0.5-1.4,1.2c0,0.1,0,0.1,0,0.2v3.2h-1.1L83.2,10.2z"/>
			<path class="st1" d="M89.2,16.2c0-1,0.7-1.5,2-1.6l1.5-0.1V14c0-0.6-0.4-0.9-1.1-0.9c-0.6,0-1,0.2-1.1,0.6h-1
				c0.1-0.9,1-1.5,2.2-1.5c1.4,0,2.1,0.7,2.1,1.8v3.7h-1v-0.8h-0.1c-0.3,0.6-1,0.9-1.6,0.8C90.2,17.8,89.4,17.1,89.2,16.2
				C89.2,16.3,89.2,16.3,89.2,16.2z M92.7,15.8v-0.5l-1.3,0.1c-0.7,0-1.1,0.3-1.1,0.8s0.4,0.8,1,0.8C92,17,92.6,16.5,92.7,15.8
				L92.7,15.8L92.7,15.8z"/>
			<path class="st1" d="M95.4,12.3h1v0.8h0.1c0.2-0.6,0.8-1,1.5-0.9c0.2,0,0.3,0,0.5,0v1.1c-0.2,0-0.4-0.1-0.6-0.1
				c-0.7-0.1-1.3,0.5-1.4,1.1v0.1v3.2h-1.1V12.3z"/>
			<path class="st1" d="M99.5,18.3h1c0.1,0.4,0.5,0.6,1.3,0.6c0.9,0,1.4-0.4,1.4-1.1v-1h-0.1c-0.3,0.6-1,0.9-1.7,0.9
				c-1.4,0-2.2-1.1-2.2-2.7s0.9-2.7,2.2-2.7c0.7,0,1.4,0.3,1.7,1h0.1v-0.9h1v5.4c0,1.2-1,2-2.5,2C100.4,19.8,99.6,19.2,99.5,18.3z
				 M103.2,15c0-1.1-0.6-1.8-1.5-1.8s-1.4,0.7-1.4,1.8s0.5,1.8,1.4,1.8C102.7,16.7,103.2,16.1,103.2,15L103.2,15z"/>
			<path class="st1" d="M110.6,16.3c-0.3,1-1.3,1.7-2.3,1.6c-1.4,0-2.5-1-2.5-2.4c0-0.1,0-0.3,0-0.4c-0.2-1.4,0.8-2.6,2.1-2.8
				c0.1,0,0.2,0,0.4,0c1.5,0,2.4,1,2.4,2.7v0.4h-3.8v0.1c-0.1,0.8,0.5,1.5,1.3,1.5h0.1c0.5,0.1,1-0.2,1.3-0.7H110.6z M106.8,14.5
				h2.7c0.1-0.7-0.5-1.3-1.2-1.4h-0.1C107.4,13.1,106.8,13.7,106.8,14.5L106.8,14.5L106.8,14.5z"/>
			<path class="st1" d="M112.1,12.3h1v0.8h0.1c0.2-0.6,0.8-1,1.5-0.9c0.2,0,0.3,0,0.5,0v1.1c-0.2,0-0.4-0.1-0.6-0.1
				c-0.7-0.1-1.3,0.5-1.4,1.1v0.1v3.2h-1.1V12.3z"/>
			<path class="st1" d="M118.9,15c0-1.7,0.9-2.8,2.2-2.8c0.7,0,1.3,0.3,1.7,0.9h0.1v-3h1.1v7.5h-1v-0.9h-0.1c-0.3,0.6-1,1-1.7,0.9
				C119.8,17.8,118.9,16.7,118.9,15z M120,15c0,1.1,0.5,1.8,1.4,1.8s1.5-0.7,1.5-1.8s-0.6-1.8-1.5-1.8C120.6,13.2,120,13.9,120,15
				L120,15z"/>
			<path class="st1" d="M125.4,16.2c0-1,0.7-1.5,2-1.6l1.5-0.1V14c0-0.6-0.4-0.9-1.1-0.9c-0.6,0-1,0.2-1.1,0.6h-1
				c0.1-0.9,1-1.5,2.2-1.5c1.4,0,2.1,0.7,2.1,1.8v3.7h-1v-0.8h-0.1c-0.3,0.6-1,0.9-1.6,0.8C126.4,17.8,125.6,17.1,125.4,16.2
				C125.4,16.3,125.4,16.3,125.4,16.2z M128.9,15.8v-0.5l-1.3,0.1c-0.7,0-1.1,0.3-1.1,0.8s0.4,0.8,1,0.8
				C128.2,17,128.8,16.5,128.9,15.8L128.9,15.8L128.9,15.8z"/>
			<path class="st1" d="M131.6,12.3h1v0.9h0.1c0.3-0.6,0.9-1,1.6-1c1-0.1,1.8,0.7,1.9,1.6c0,0.1,0,0.3,0,0.4v3.5h-1.1v-3.2
				c0-0.9-0.4-1.3-1.2-1.3c-0.7,0-1.3,0.5-1.3,1.2c0,0.1,0,0.1,0,0.2v3.2h-1.1v-5.5C131.5,12.3,131.6,12.3,131.6,12.3z"/>
			<path class="st1" d="M139.8,12.2c1.2,0,2,0.6,2.1,1.5h-1c-0.1-0.4-0.5-0.6-1.1-0.6s-1,0.3-1,0.7c0,0.3,0.3,0.5,0.9,0.7l0.9,0.2
				c1,0.2,1.5,0.7,1.5,1.5c0,1-0.9,1.7-2.2,1.7s-2.1-0.6-2.2-1.5h1.1c0.2,0.5,0.7,0.7,1.2,0.7c0.7,0,1.1-0.3,1.1-0.7
				c0-0.3-0.3-0.5-0.8-0.7l-0.9-0.2c-1-0.2-1.5-0.7-1.5-1.5C137.7,12.9,138.6,12.2,139.8,12.2z"/>
		</g>
		<path class="st1" d="M57.7,21.8h2.2v14.9h-2.2V21.8z"/>
		<path class="st1" d="M62.7,27.2l1.2-5.5h2.2l-1.5,5.5H62.7z"/>
		<path class="st1" d="M74.5,32.7h-5.7l-1.4,4H65l5.4-14.9h2.5l5.4,14.9h-2.4L74.5,32.7z M69.4,30.8h4.5l-2.2-6.5h-0.1L69.4,30.8z"
			/>
		<path class="st1" d="M89.9,31.3c0,3.4-1.8,5.5-4.5,5.5c-1.4,0.1-2.7-0.7-3.4-1.9h-0.1v5.4h-2.2V25.8h2.2v1.8l0,0
			c0.7-1.2,2-2,3.5-1.9C88.1,25.7,89.9,27.9,89.9,31.3z M87.6,31.3c0-2.2-1.1-3.6-2.9-3.6c-1.7,0-2.8,1.5-2.8,3.6
			c0,2.2,1.1,3.7,2.8,3.7C86.5,34.9,87.6,33.5,87.6,31.3z"/>
		<path class="st1" d="M101.9,31.3c0,3.4-1.8,5.5-4.5,5.5c-1.4,0.1-2.7-0.7-3.4-1.9h-0.1v5.4h-2.2V25.8h2.2v1.8l0,0
			c0.7-1.2,2-2,3.5-1.9C100,25.7,101.9,27.9,101.9,31.3z M99.6,31.3c0-2.2-1.1-3.6-2.9-3.6c-1.7,0-2.8,1.5-2.8,3.6
			c0,2.2,1.1,3.7,2.8,3.7C98.4,34.9,99.6,33.5,99.6,31.3z"/>
		<path class="st1" d="M109.8,32.5c0.2,1.5,1.6,2.4,3.6,2.4c1.9,0,3.2-1,3.2-2.3c0-1.2-0.8-1.8-2.7-2.3l-1.9-0.5c-2.7-0.7-4-1.9-4-4
			c0-2.6,2.2-4.3,5.4-4.3c3.1,0,5.3,1.8,5.4,4.3h-2.3c-0.1-1.5-1.4-2.4-3.2-2.4s-3,0.9-3,2.2c0,1.1,0.8,1.7,2.7,2.1l1.6,0.4
			c3.1,0.7,4.3,2,4.3,4.1c0,2.8-2.2,4.5-5.8,4.5c-3.3,0-5.5-1.7-5.7-4.4L109.8,32.5z"/>
		<path class="st1" d="M123.7,23.2v2.6h2.1v1.8h-2.1v6c0,0.9,0.4,1.4,1.3,1.4c0.2,0,0.5,0,0.7-0.1v1.8c-0.4,0.1-0.8,0.1-1.2,0.1
			c-2.2,0-3.1-0.8-3.1-2.9v-6.2h-1.6v-1.8h1.6v-2.6L123.7,23.2L123.7,23.2z"/>
		<path class="st1" d="M127,31.3c0-3.4,2-5.6,5.2-5.6c3.1,0,5.2,2.1,5.2,5.6c0,3.4-2,5.6-5.2,5.6C129,36.8,127,34.7,127,31.3z
			 M135,31.3c0-2.3-1.1-3.7-2.9-3.7s-2.9,1.4-2.9,3.7c0,2.4,1.1,3.7,2.9,3.7S135,33.6,135,31.3L135,31.3z"/>
		<path class="st1" d="M139.1,25.8h2.1v1.8h0.1c0.3-1.2,1.4-2,2.6-2c0.3,0,0.5,0,0.8,0.1v2.1c-0.3-0.1-0.7-0.1-1-0.1
			c-1.2-0.1-2.3,0.9-2.3,2.2c0,0.1,0,0.2,0,0.3v6.4h-2.2L139.1,25.8z"/>
		<path class="st1" d="M155,33.5c-0.3,2-2.2,3.3-4.7,3.3c-3.2,0-5.1-2.1-5.1-5.5s2-5.6,5-5.6s4.9,2.1,4.9,5.4v0.8h-7.7V32
			c-0.1,1.6,1,2.9,2.6,3.1c0.1,0,0.2,0,0.4,0c1.1,0.1,2.1-0.5,2.5-1.5L155,33.5z M147.4,30.2h5.4c0.1-1.4-1-2.7-2.5-2.8
			c-0.1,0-0.1,0-0.2,0C148.7,27.5,147.4,28.7,147.4,30.2L147.4,30.2z"/>
	</g>
</g>
</svg>
