<svg id="Ebene_1" xmlns="http://www.w3.org/2000/svg" width="168" height="48" viewBox="0 0 168 48"><style>.st0{fill:#d2d2d2}.st1{fill:#fff}.st2{fill:#7eb900}.st3{fill:#f15021}.st4{fill:#00a3ee}.st5{fill:#ffb800}</style><path class="st0" d="M0 0h168l-.2 48H0V0z"/><path d="M.6.6h166.8v46.8H.6V.6z"/><path class="st1" d="M65.2 33.4l-.8 2.5c-.1-.6-.4-1.3-.8-2.5l-4.8-11.8h-4.6v18.7h3V26.2c0-.5 0-.8-.1-1.2.1.7.2 1.2.4 1.6L63 40.2h2.2l5.6-13.8c.1-.4.2-1 .4-1.4 0 1.3-.1 2.6-.1 3.4v11.9h3.2V21.6h-4.7c.4 0-4.4 11.8-4.4 11.8zm36.8-6.6c-.7 0-1.4.2-2.2.7-.5.5-.8 1.1-1.2 1.8v-2.4h-3.1v13.4h3.1v-7c0-1.1.2-2.2.7-2.9s1.2-1.1 2-1.1c.2 0 .6.1 1 .1.4.1.6.2.7.4l.1.1v-3.1H102zm-10.3 0c-.6-.1-1.2-.2-1.7-.2-1.3 0-2.8.4-3.8 1s-2 1.4-2.5 2.6c-.6 1.1-.8 2.4-.8 3.7 0 1.2.2 2.5.8 3.5.5 1 1.3 1.8 2.4 2.5 1 .6 2.2.8 3.5.8 1.4 0 2.8-.4 3.8-.8v-3l-.2.1c-.5.4-1 .6-1.4.7-.5.2-1.1.2-1.4.2-1.2 0-2.3-.4-3-1.1s-1.1-1.8-1.1-3.2c0-1.3.4-2.5 1.1-3.4.7-.7 1.7-1.2 3-1.2 1 0 2 .4 3 1l.1.1V27c-.6.1-1.1-.1-1.8-.2zm-12.6-5.7c-.5 0-1 .2-1.3.5s-.5.7-.5 1.3c0 .5.2 1 .5 1.2s.7.5 1.3.5 1-.2 1.3-.5c.4-.4.5-.7.5-1.2s-.2-1-.5-1.3c-.4-.2-.8-.5-1.3-.5zm-1.7 19.2h3.1V26.9h-3.1v13.4zm58.8-13.7c-2.3 0-4 .6-5.2 1.9-1.2 1.2-1.9 3.1-1.9 5.3s.6 3.8 1.9 5c1.2 1.2 2.9 1.8 4.9 1.8s3.8-.6 5-1.9 1.9-3.1 1.9-5.2c0-2.2-.6-3.8-1.7-5-1.2-1.3-3-1.9-4.9-1.9zm2.4 10.4c-.6.7-1.4 1.1-2.6 1.1-1.1 0-2-.4-2.8-1.1-.6-.7-1-1.8-1-3.2s.4-2.5 1-3.4c.6-.7 1.6-1.1 2.8-1.1 1.1 0 2 .4 2.6 1.1s1 1.8 1 3.4c-.2 1.2-.4 2.4-1 3.2zm-14.4-4.5c-1-.4-1.6-.7-1.9-1-.2-.2-.4-.6-.4-1s.1-.7.5-1 .7-.4 1.3-.4c.5 0 1.1.1 1.6.2s1 .4 1.3.6l.1.1v-3c-.4-.1-.8-.2-1.3-.4-.6-.1-1.1-.1-1.6-.1-1.4 0-2.8.4-3.7 1.1s-1.3 1.7-1.3 3c0 .6.1 1.2.2 1.6.2.5.5.8 1 1.2.4.4 1.1.7 2 1.1.7.4 1.2.6 1.6.7.4.2.5.4.7.6.1.2.2.5.2.7 0 .8-.6 1.3-2 1.3-.5 0-1.1-.1-1.7-.4s-1.2-.5-1.7-.8l-.1-.1v3.1c.5.2 1 .4 1.7.5.6.1 1.2.2 1.9.2 1.6 0 3-.4 3.8-1.1 1-.7 1.4-1.7 1.4-3.1 0-.8-.2-1.7-.7-2.4-.7-.1-1.6-.7-2.9-1.2zm-13.6-5.9c-2.3 0-4 .6-5.2 1.9-1.2 1.2-1.9 3.1-1.9 5.3s.6 3.8 1.9 5c1.2 1.2 2.9 1.8 4.9 1.8s3.8-.6 5-1.9 1.9-3.1 1.9-5.2c0-2.2-.6-3.8-1.7-5-1.1-1.3-2.8-1.9-4.9-1.9zM113 37c-.6.7-1.4 1.1-2.6 1.1-1.1 0-2-.4-2.8-1.1-.6-.7-1-1.8-1-3.2s.4-2.5 1-3.4c.6-.7 1.6-1.1 2.8-1.1 1.1 0 2 .4 2.6 1.1s1 1.8 1 3.4c-.1 1.2-.4 2.4-1 3.2zm46.5-7.6v-2.6h-3.2v-4h-.1l-3 .8v3.1h-4.7V25c0-.7.2-1.3.5-1.7.4-.4.8-.6 1.4-.6.4 0 .8.1 1.3.4l.1.1v-2.8c-.4-.1-1-.2-1.7-.2-1 0-1.7.2-2.5.6-.7.4-1.3 1-1.7 1.7s-.6 1.6-.6 2.5v1.8H143v2.6h2.3v10.9h3.2V29.5h4.7v7c0 2.9 1.3 4.3 4 4.3.4 0 .8-.1 1.3-.1.5-.1.7-.2 1-.4v-2.6l-.1.1c-.2.1-.4.2-.6.2-.2.1-.5.1-.6.1-.6 0-1.1-.1-1.3-.5s-.4-.8-.4-1.7v-6.4l3-.1zM60.8 16c-.9.5-1.9.8-3 .8-.9 0-1.6-.2-2.3-.6s-1.2-.9-1.5-1.6c-.4-.7-.5-1.5-.5-2.3 0-.9.2-1.7.6-2.4.4-.7.9-1.3 1.7-1.7.7-.4 1.5-.6 2.4-.6.5 0 .9.1 1.4.1.5.1.8.2 1.1.3v1.3c-.8-.3-1.6-.6-2.7-.6-.6 0-1.2.2-1.7.5s-.9.7-1.2 1.2-.4 1.1-.4 1.8c0 1.1.3 1.9.8 2.5.6.6 1.3.9 2.3.9.6 0 1.2-.1 1.6-.4V13h-1.9v-1.1h3.1V16h.2zm7.3-2.2h-4.4c0 .6.2 1.1.6 1.5.4.3.8.5 1.4.5.8 0 1.4-.2 2-.7v1.1c-.3.2-.6.3-1 .4s-.8.2-1.2.2c-1 0-1.7-.3-2.2-.9s-.8-1.4-.8-2.4c0-.6.1-1.2.4-1.7.3-.5.6-.9 1.1-1.2s1-.4 1.5-.4c.8 0 1.5.3 1.9.8.5.5.7 1.3.7 2.2v.6zm-1.3-.9c0-.6-.1-1-.4-1.3s-.6-.4-1.1-.4c-.4 0-.8.2-1.1.5-.3.3-.5.7-.6 1.2h3.2zm6 3.7c-.1.1-.3.1-.5.2-.2 0-.4.1-.6.1-1.2 0-1.8-.7-1.8-1.9v-3.5h-1.1v-1H70V8.8l1.2-.4v1.9h1.6v1h-1.6v3.3c0 .4.1.7.2.9s.4.3.7.3c.2 0 .5-.1.6-.2l.1 1zm6.1-8.5c0 .2-.1.4-.2.5-.2.2-.3.2-.6.2-.2 0-.4-.1-.6-.2-.2-.1-.2-.3-.2-.5s.1-.4.2-.5c.2-.1.3-.2.5-.2s.4.1.5.2c.3.1.4.2.4.5m-.2 8.5h-1.2v-6.3h1.2v6.3zm5.4 0c-.1.1-.3.1-.5.2-.2 0-.4.1-.6.1-1.2 0-1.8-.7-1.8-1.9v-3.5h-1.1v-1h1.1V8.8l1.2-.4v1.9H84v1h-1.6v3.3c0 .4.1.7.2.9s.4.3.7.3c.2 0 .5-.1.6-.2l.2 1zm8-8.3c-.2-.1-.4-.2-.7-.2-.7 0-1 .4-1 1.3v.9h1.4v1h-1.4v5.3h-1.2v-5.3h-1.1v-1h1.1v-1c0-.7.2-1.2.6-1.6.4-.4.9-.6 1.6-.6.3 0 .6 0 .8.1l-.1 1.1zm4.5 3.2c-.1-.1-.2-.1-.4-.2-.2 0-.3-.1-.4-.1-.4 0-.8.2-1.1.6-.3.4-.4.9-.4 1.5v3.2h-1.2v-6.3h1.2v1.3c.1-.4.4-.8.6-1s.6-.4 1-.4c.3 0 .5 0 .6.1l.1 1.3zm7 1.9c0 1-.3 1.8-.9 2.5-.6.6-1.4.9-2.3.9-1 0-1.7-.3-2.3-.9-.6-.6-.9-1.4-.9-2.4 0-1.1.3-1.9.9-2.5s1.4-.9 2.4-.9 1.7.3 2.2.9c.6.6.9 1.4.9 2.4m-1.3.1c0-.8-.2-1.3-.5-1.7s-.8-.6-1.4-.6-1.1.2-1.4.6c-.4.4-.5 1-.5 1.7s.2 1.3.5 1.7c.4.4.8.6 1.4.6s1.1-.2 1.4-.6c.4-.4.5-1 .5-1.7m12.2 3.1h-1.2V13c0-.7-.1-1.1-.3-1.4-.2-.3-.6-.4-1-.4s-.8.2-1 .6c-.3.4-.4.8-.4 1.3v3.6h-1.2V13c0-1.2-.5-1.7-1.3-1.7-.4 0-.8.2-1 .5-.3.4-.4.8-.4 1.4v3.6h-1.2v-6.4h1.2v1c.5-.8 1.1-1.1 2-1.1.4 0 .8.1 1.1.3.3.2.6.5.7.9.3-.4.5-.8.9-1s.8-.3 1.2-.3c1.4 0 2.1.9 2.1 2.6l-.2 3.8z"/><path class="st2" d="M30 6h16.8v16.8H30V6z"/><path class="st3" d="M10.8 6h16.8v16.8H10.8V6z"/><path class="st4" d="M10.8 25.2h16.8V42H10.8V25.2z"/><path class="st5" d="M30 25.2h16.8V42H30V25.2z"/></svg>